<?xml version="1.0" standalone="no"?> <!DOCTYPE svg PUBLIC "-//W3C//DTD SVG 1.0//EN" "http://www.w3.org/TR/2001/REC-SVG-20010904/DTD/svg10.dtd" > <svg xmlns="http://www.w3.org/2000/svg" width="100%" height="100%">
<defs >
<font id="NimbusRomanDOT-Bold" horiz-adv-x="384" ><font-face
    font-family="NimbusRomanDOT-Bold"
    units-per-em="1000"
    panose-1="2 0 0 0 0 0 0 0 0 0"
    ascent="667"
    descent="-163"
    alphabetic="0" />
<missing-glyph horiz-adv-x="250" />
<glyph unicode=" " glyph-name="space" horiz-adv-x="250" />
<glyph unicode="!" glyph-name="exclam" horiz-adv-x="293" d="M161 210H129Q128 291 82 506Q71 558 71 594T93 653T149 677Q181 677 203 652T225 591Q225 567 192 419Q161 277 161 210ZM148 151Q180 151 203 127T227 71Q227 37 204 14T146 -10Q113 -10 90 13T66
71Q66 104 90 127T148 151Z" />
<glyph unicode="&quot;" glyph-name="quotedbl" horiz-adv-x="488" d="M171 347H103Q97 380 94 396L90 418L72 506Q60 557 60 594Q60 629 82 653T137 677T192 653T214 594T184 418Q184 417 183 409T178 383T171 347ZM385 347H317Q315 358 314 367T311 385T308
396Q301 434 286 506Q274 557 274 594Q274 629 296 653T351 677T406 653T428 594T398 418Q398 417 397 409T392 383T385 347Z" />
<glyph unicode="#" glyph-name="numbersign" horiz-adv-x="500" d="M445 292V214H357L325 0H246L277 214H196L164 0H84L116 214H29V292H128L142 389H58V467H154L184 667H264L234 467H312L342 667H425L395 467H472V389H383L369 292H445ZM304 389H222L208 292H289L304 389Z" />
<glyph unicode="$" glyph-name="dollar" horiz-adv-x="500" d="M273 10V-74H236V8Q185 11 140 30T69 78V226H103Q114 147 148 103T236 54V277Q227 282 214 287Q121 328 92 364Q56 410 56 471Q56 561 127 618Q169 652 236 661V740H273V664Q362 665 433 611V468H400Q396
539 362 581T276 620H273V431Q361 395 403 365Q435 341 455 301T475 217Q475 168 450 123T384 50Q347 25 273 10ZM273 264V56Q306 66 322 84Q352 119 352 160Q352 230 273 264ZM236 448V616Q203 610 184 589T165 536Q165 507 180 488T236 448Z" />
<glyph unicode="%" glyph-name="percent" horiz-adv-x="602" d="M41 0L501 667H564L103 0H41ZM399 309T456 309T552 263T591 150Q591 88 551 44T456 -1Q400 -1 361 44T322 154Q322 220 360 264ZM456 285Q410 285 410 148Q410 24 454 24Q501 24 501 153Q501 223
491 254T456 285ZM92 664T149 664T244 619T283 505Q283 443 244 399T149 354Q93 354 54 399T15 509Q15 575 53 619ZM148 640Q103 640 103 503Q103 379 147 379Q193 379 193 508Q193 578 183 609T148 640Z" />
<glyph unicode="&amp;" glyph-name="ampersand" horiz-adv-x="751" d="M688 133L714 113Q684 55 646 23T570 -9Q514 -9 438 73Q338 -10 252 -10Q182 -10 129 45T75 171Q75 253 149 322Q171 342 244 383Q226 451 226 486Q226 572 274 624T403 677Q463 677 500 642T537
548Q537 484 485 438Q464 419 399 392Q419 355 453 303T513 220Q560 288 560 329Q560 346 548 358T513 374V399H705V374Q667 368 649 350T594 264Q562 206 547 184Q612 105 648 105Q668 105 688 133ZM384 439L387 440Q443 462 443 529Q443 572 426 600T382 629Q360
629 347 615T334 576Q334 548 347 509T379 437Q381 438 384 439ZM259 340Q230 321 218 301T206 249Q206 192 253 140T352 88Q375 88 404 113Q358 170 329 215T259 340Z" />
<glyph unicode="&apos;" glyph-name="quotesingle" horiz-adv-x="274" d="M171 347H103Q97 380 94 396L90 418L72 506Q60 557 60 594Q60 629 82 653T137 677T192 653T214 594T184 418Q184 417 183 409T178 383T171 347Z" />
<glyph unicode="(" glyph-name="parenleft" horiz-adv-x="346" d="M313 680V645Q276 626 255 603T215 537Q175 443 175 262Q175 135 188 60T232 -67Q268 -125 313 -146V-176Q260 -158 220 -128T143 -47Q51 78 51 247Q51 434 161 571Q219 643 313 680Z" />
<glyph unicode=")" glyph-name="parenright" horiz-adv-x="346" d="M51 -176V-141Q88 -122 109 -99T149 -33Q190 59 190 242Q190 370 177 445T132 571Q99 626 51 650V680Q105 662 144 632T222 551Q314 426 314 257Q314 70 204 -67Q144 -140 51 -176Z" />
<glyph unicode="*" glyph-name="asterisk" horiz-adv-x="381" d="M174 677T191 677T219 667T231 640Q231 620 205 558Q201 549 201 543Q201 533 209 533Q216 533 227 543Q287 594 308 594Q323 594 334 582T346 552Q346 512 287 512Q279 512 238 514Q234 515 227
515Q211 515 211 507Q211 502 217 497T250 475Q304 442 304 418Q304 402 291 389T260 376Q235 376 221 411Q216 424 204 472Q200 493 191 493T178 472Q165 421 161 411Q147 376 122 376Q105 376 92 389T78 418T91 446T154 490Q170 499 170 507T154 515Q153 515
148 515T133 514T116 513Q107 512 93 512Q35 512 35 552Q35 569 46 581T73 594Q86 594 102 584T155 543Q166 533 173 533Q181 533 181 543Q181 547 166 583Q150 621 150 640Q150 656 162 666Z" />
<glyph unicode="+" glyph-name="plus" horiz-adv-x="500" d="M203 381V531H298V381H448V292H298V142H203V292H52V381H203Z" />
<glyph unicode="," glyph-name="comma" horiz-adv-x="297" d="M71 -170V-147Q174 -92 174 -14Q174 -6 173 0Q153 -16 128 -16Q100 -16 80 6T59 59Q59 92 83 116T140 140Q181 140 208 107T235 24Q235 -58 174 -116Q137 -149 71 -170Z" />
<glyph unicode="-" glyph-name="hyphen" horiz-adv-x="201" d="M201 280V182H0V280H201Z" />
<glyph unicode="." glyph-name="period" horiz-adv-x="297" d="M149 140Q179 140 201 118T223 65T201 12T148 -10T95 12T73 66T95 118T149 140Z" />
<glyph unicode="/" glyph-name="slash" horiz-adv-x="339" d="M294 667L97 -163H6L203 667H294Z" />
<glyph unicode="0" glyph-name="zero" horiz-adv-x="500" d="M214 677T251 677T325 658T386 607Q418 564 438 488T458 331Q458 159 389 63Q365 30 327 10T248 -10Q213 -10 177 9T116 61Q42 157 42 331Q42 416 61 489T113 607Q137 638 175 657ZM251 639Q207 639
195 585Q188 554 188 333Q188 103 197 73Q213 28 251 28Q294 28 306 82Q313 108 313 333Q313 564 304 594Q288 639 251 639Z" />
<glyph unicode="1" glyph-name="one" horiz-adv-x="500" d="M340 682V97Q340 66 344 54T359 33Q378 20 406 20H430V0H88V20H124Q156 20 175 36Q190 47 190 97V506Q190 572 146 572Q122 572 89 553L78 575L322 682H340Z" />
<glyph unicode="2" glyph-name="two" horiz-adv-x="500" d="M182 124H335Q384 124 418 142Q442 155 453 183H475L424 0H42V16Q129 101 209 233Q290 364 290 455Q290 507 259 540T178 573Q141 573 116 555T69 495L52 504Q102 677 243 677Q323 677 376 632T429 518Q429
474 406 425T327 298Q252 196 182 124Z" />
<glyph unicode="3" glyph-name="three" horiz-adv-x="500" d="M80 516L60 522Q75 563 89 585T125 626Q186 677 269 677Q339 677 383 639T427 539Q427 460 347 405Q459 350 459 229Q459 125 381 56Q306 -10 185 -10Q121 -10 82 11T42 67Q42 87 55 101T89 115Q108
115 122 108T163 76Q211 34 258 34Q300 34 326 65T352 146Q352 215 305 264T169 336V357Q229 365 263 398T298 481Q298 530 269 560T193 590Q150 590 117 566Q99 552 80 516Z" />
<glyph unicode="4" glyph-name="four" horiz-adv-x="500" d="M265 134H37V240L351 679H415V240H463V134H415V0H265V134ZM265 240V485L90 240H265Z" />
<glyph unicode="5" glyph-name="five" horiz-adv-x="500" d="M156 545L131 475Q280 474 365 410T451 235Q451 129 378 60T195 -10Q126 -10 83 13T39 72Q39 92 54 106T93 120Q117 120 155 97Q237 48 273 48Q313 48 339 78T365 156Q365 261 239 311Q181 333 40 336L156
667H457L406 545H156Z" />
<glyph unicode="6" glyph-name="six" horiz-adv-x="500" d="M463 677V649Q362 642 290 577T196 408Q240 428 278 428Q356 428 405 370T454 219Q454 123 395 57T250 -10Q203 -10 160 12T87 75Q32 149 32 267Q32 491 203 604Q313 677 463 677ZM188 357L185 253Q185
28 258 28Q287 28 300 63T313 181Q313 278 291 323T222 368Q201 368 188 357Z" />
<glyph unicode="7" glyph-name="seven" horiz-adv-x="500" d="M348 541H198Q136 541 105 526T59 473H36L82 667H465L257 -11H180L348 541Z" />
<glyph unicode="8" glyph-name="eight" horiz-adv-x="500" d="M343 378Q409 320 433 280T457 185Q457 99 400 45T252 -10Q158 -10 101 37T43 163Q43 220 69 255T168 330Q110 376 85 418T59 511Q59 582 116 629T260 677Q340 677 393 635T447 528Q447 480 417 438Q396
409 343 378ZM300 407Q333 466 333 530Q333 583 313 614T257 645Q226 645 204 621T182 564Q182 523 209 488T300 407ZM208 303Q178 262 170 236T162 153Q162 28 247 28Q283 28 304 53T325 123Q325 172 299 213T208 303Z" />
<glyph unicode="9" glyph-name="nine" horiz-adv-x="500" d="M32 -10V18Q132 25 204 90T299 259Q248 239 211 239Q137 239 89 298T41 448Q41 544 100 610T245 677Q292 677 335 655T408 592Q463 518 463 400Q463 176 292 63Q182 -10 32 -10ZM307 317L310 412Q310
639 237 639Q208 639 195 604T182 486Q182 299 268 299Q295 299 307 317Z" />
<glyph unicode=":" glyph-name="colon" horiz-adv-x="297" d="M149 470Q179 470 201 448T223 395T201 342T148 320T95 342T73 396T95 448T149 470ZM149 140Q179 140 201 118T223 65T201 12T148 -10T95 12T73 66T95 118T149 140Z" />
<glyph unicode=";" glyph-name="semicolon" horiz-adv-x="297" d="M71 -170V-147Q174 -92 174 -14Q174 -6 173 0Q153 -16 128 -16Q100 -16 80 6T59 59Q59 92 83 116T140 140Q181 140 208 107T235 24Q235 -58 174 -116Q137 -149 71 -170ZM142 470Q172 470 194 448T216
395T194 342T141 320T88 342T66 396T88 448T142 470Z" />
<glyph unicode="&lt;" glyph-name="less" horiz-adv-x="500" d="M460 633V571L207 411L460 239V73L39 361V369L460 633Z" />
<glyph unicode="=" glyph-name="equal" horiz-adv-x="500" d="M448 463V374H52V463H448ZM448 299V210H52V299H448Z" />
<glyph unicode="&gt;" glyph-name="greater" horiz-adv-x="500" d="M39 73V135L292 296L39 468V633L460 345V337L39 73Z" />
<glyph unicode="?" glyph-name="question" horiz-adv-x="448" d="M219 207H192Q194 254 197 279Q204 310 235 374Q265 438 265 507Q265 567 245 602T190 637Q173 637 160 630T147 614Q147 609 162 582Q176 556 176 527Q176 504 159 487T118 469Q90 469 70 493T50
549Q50 605 96 641T215 677Q303 677 359 628T415 500Q415 435 369 384Q350 364 339 356T279 322Q247 306 233 280T219 207ZM212 140Q242 140 264 118T286 65T264 12T211 -10T158 12T136 66T158 118T212 140Z" />
<glyph unicode="@" glyph-name="at" horiz-adv-x="789" d="M474 499H566L500 268Q494 246 494 233Q494 224 510 224Q545 224 588 265Q657 329 657 421Q657 503 600 554T452 606Q317 606 230 514Q193 475 167 410T140 292Q140 245 162 197T221 116Q286 60 378 60Q428
60 472 74T587 127L627 89Q563 46 536 33Q453 -7 367 -7Q237 -7 150 82T63 302Q63 391 110 476T235 613Q330 674 450 674Q572 674 649 606T726 428Q726 317 651 237T473 156Q401 156 401 218Q401 224 404 248Q357 168 310 168Q283 168 266 193T248 256Q248 344
305 425T423 507Q457 507 466 472L474 499ZM433 475Q411 477 382 418Q365 385 351 338T336 270Q336 240 353 240Q373 240 413 317Q451 390 451 442Q451 473 433 475Z" />
<glyph unicode="A" glyph-name="A" horiz-adv-x="619" d="M353 214H167L129 107Q118 74 118 63Q118 45 136 33T180 20H202V0H-8V20Q50 23 83 121L289 673H317L576 65Q587 39 597 30T623 20H632V0H328V20H353Q415 20 415 57Q415 70 402 99L353 214ZM254 454L181
251H339L254 454Z" />
<glyph unicode="B" glyph-name="B" horiz-adv-x="619" d="M14 667H307Q408 667 468 635Q558 585 558 499Q558 430 505 388Q473 362 406 347Q488 325 519 300Q579 252 579 176Q579 94 522 51Q455 0 360 0H14V20H33Q65 20 84 36Q99 47 99 97V567Q99 599 95 612T80
634Q61 647 33 647H14V667ZM246 323V92Q246 62 257 50T297 38Q351 38 381 76T412 181Q412 324 271 324Q255 324 246 323ZM246 628V364Q256 363 270 363Q333 363 367 398T401 497Q401 560 366 594T264 628H246Z" />
<glyph unicode="C" glyph-name="C" horiz-adv-x="648" d="M597 179L627 147Q580 72 507 31T345 -10Q208 -10 121 84T33 324Q33 476 127 576T363 677Q405 677 432 671T525 638Q544 630 553 630Q568 630 576 640T588 677H611V462H588Q569 529 535 565Q476 626 392
626Q301 626 249 543Q200 465 200 330Q200 191 247 116T382 41Q512 41 597 179Z" />
<glyph unicode="D" glyph-name="D" horiz-adv-x="703" d="M99 97V569Q99 600 95 613T80 634Q61 647 32 647H14V667H318Q391 667 440 654T534 610Q598 566 633 493T669 331Q669 232 627 156T508 41Q427 0 318 0H14V20H32Q63 20 84 36Q99 48 99 97ZM246 629V134Q246
90 248 75T259 52Q273 38 311 38Q405 38 450 99Q506 174 506 330Q506 425 484 495T421 597Q396 616 368 622T285 629H246Z" />
<glyph unicode="E" glyph-name="E" horiz-adv-x="604" d="M246 321V108Q246 65 258 51T305 37H343Q450 37 502 95Q543 140 555 205H581L548 0H14V20H32Q64 20 83 36Q99 47 99 97V569Q99 601 95 613T79 634Q59 647 32 647H14V667H536V483H514Q505 550 475 584Q433
632 361 632H246V359H273Q328 359 353 410Q370 444 376 503H399V178H376V186Q376 219 363 251Q348 288 327 304T273 321H246Z" />
<glyph unicode="F" glyph-name="F" horiz-adv-x="554" d="M246 319V97Q246 66 250 54T266 33Q286 20 314 20H351V0H14V20H33Q63 20 84 36Q99 48 99 97V569Q99 600 95 613T80 634Q61 647 33 647H14V667H535V491H513Q500 569 458 602Q424 628 358 628H246V360Q258
359 276 359Q335 359 368 403Q389 434 392 491H418V181H392Q392 319 265 319H246Z" />
<glyph unicode="G" glyph-name="G" horiz-adv-x="709" d="M614 676V464H593Q581 504 564 531T515 585Q453 638 386 638Q294 638 248 570Q198 497 198 323Q198 146 247 81Q286 29 364 29Q422 29 464 47V205Q464 236 460 248T445 269Q426 281 397 281H381V302H699V281H681Q648
281 630 266Q614 254 614 205V47Q508 -10 379 -10Q229 -10 131 83T33 319Q33 397 65 471T155 597Q242 677 365 677Q427 677 502 652Q539 639 553 639Q586 639 593 676H614Z" />
<glyph unicode="H" glyph-name="H" horiz-adv-x="752" d="M246 320V97Q246 66 250 54T265 33Q284 20 312 20H331V0H14V20H33Q63 20 84 36Q99 48 99 97V567Q99 599 95 612T80 634Q61 647 33 647H14V667H331V647H312Q280 647 261 631Q246 617 246 567V360H506V567Q506
599 502 612T487 634Q467 647 440 647H421V667H738V647H719Q687 647 668 631Q653 617 653 567V97Q653 66 657 54T672 33Q693 20 719 20H738V0H421V20H440Q470 20 491 36Q506 48 506 97V320H246Z" />
<glyph unicode="I" glyph-name="I" horiz-adv-x="346" d="M99 97V567Q99 599 95 612T80 634Q61 647 33 647H14V667H331V647H312Q280 647 261 631Q246 617 246 567V97Q246 66 250 54T265 33Q284 20 312 20H331V0H14V20H33Q63 20 84 36Q99 48 99 97Z" />
<glyph unicode="J" glyph-name="J" horiz-adv-x="483" d="M383 566V193Q383 140 377 113T352 61Q325 25 278 4T177 -17Q103 -17 52 20T0 111Q0 144 20 167T70 191Q98 191 119 171T140 124Q140 109 136 100T116 70Q113 66 113 58Q113 46 128 38T165 29Q232 29 232
127V566Q232 599 228 612T213 634Q194 647 166 647H133V667H466V647H450Q417 647 398 631Q383 617 383 566Z" />
<glyph unicode="K" glyph-name="K" horiz-adv-x="657" d="M246 297V97Q246 66 250 54T265 33Q284 20 312 20H321V0H14V20H33Q63 20 84 36Q99 48 99 97V570Q99 601 95 613T80 634Q61 647 33 647H14V667H321V647H312Q280 647 261 631Q246 618 246 570V358L415 564Q442
596 442 614Q442 647 398 647H376V667H613V647Q559 646 523 623T427 526L362 445L572 88Q599 42 611 32T649 20V0H352V20H376Q421 20 421 44Q421 54 401 88L266 324L246 297Z" />
<glyph unicode="L" glyph-name="L" horiz-adv-x="578" d="M571 251L545 0H14V20H33Q65 20 84 36Q99 47 99 97V569Q99 600 95 613T80 634Q61 647 33 647H14V667H334V647H312Q280 647 261 631Q246 618 246 569V111Q246 65 255 52T299 39H352Q403 39 435 54T496 108Q530
154 551 251H571Z" />
<glyph unicode="M" glyph-name="M" horiz-adv-x="903" d="M447 206L647 667H888V647H869Q837 647 818 631Q803 617 803 567V97Q803 66 807 54T822 33Q843 20 869 20H888V0H564V20H590Q620 20 641 36Q656 49 656 97V598L398 0H380L125 623V97Q125 65 128 53T144
33Q164 20 198 20H210V0H7V20H26Q56 20 77 36Q92 47 92 97V567Q92 600 88 613T73 634Q53 647 26 647H7V667H261L447 206Z" />
<glyph unicode="N" glyph-name="N" horiz-adv-x="696" d="M128 549V97Q128 66 132 54T147 33Q168 20 194 20H213V0H7V20H26Q56 20 77 36Q92 48 92 97V585L70 611Q51 632 39 639T7 647V667H215L567 238V568Q567 600 563 613T548 634Q528 647 501 647H482V667H684V647H667Q636
647 617 631Q603 618 603 568V0H583L128 549Z" />
<glyph unicode="O" glyph-name="O" horiz-adv-x="739" d="M366 677Q519 677 613 580Q705 485 705 330Q705 179 612 85T371 -10Q219 -10 126 84T33 334Q33 503 145 597Q238 677 366 677ZM369 642Q309 642 267 591Q200 508 200 331Q200 178 246 99Q266 65 298 45T366
25Q400 25 432 43T484 93Q538 181 538 340Q538 485 494 563T369 642Z" />
<glyph unicode="P" glyph-name="P" horiz-adv-x="599" d="M246 304V97Q246 66 250 54T265 33Q284 20 312 20H345V0H14V20H32Q64 20 83 36Q99 48 99 97V571Q99 603 96 615T80 634Q61 647 33 647H14V667H345Q433 667 486 639Q579 592 579 486Q579 385 494 339Q429
303 306 303Q270 303 246 304ZM246 344L290 343Q358 343 388 376T418 485Q418 582 375 611Q350 629 300 629Q266 629 246 628V344Z" />
<glyph unicode="Q" glyph-name="Q" horiz-adv-x="739" d="M670 -116V-154Q601 -170 555 -170Q441 -170 361 -109Q332 -86 317 -65T286 -8Q186 21 126 80Q33 175 33 329Q33 496 142 593Q237 677 373 677Q518 677 611 581T705 334Q705 169 603 72Q573 43 542 26T456
-8Q472 -54 501 -78Q553 -121 626 -121Q645 -121 670 -116ZM372 637Q311 637 268 591Q200 518 200 325Q200 162 258 82Q300 27 362 27Q443 27 490 109T538 331Q538 509 470 589Q428 637 372 637Z" />
<glyph unicode="R" glyph-name="R" horiz-adv-x="624" d="M246 303V97Q246 66 250 54T265 33Q286 20 312 20H337V0H14V20H33Q63 20 84 36Q99 48 99 97V570Q99 601 95 613T80 634Q61 647 33 647H14V667H321Q433 667 495 619T557 483Q557 419 525 379T419 313L538
107Q565 60 583 42T627 20V0H437L266 303H246ZM246 623V341Q259 340 279 340Q341 340 374 376Q404 411 404 489Q404 624 280 624Q259 624 246 623Z" />
<glyph unicode="S" glyph-name="S" horiz-adv-x="555" d="M493 675V466H470Q458 533 420 573Q358 640 267 640Q211 640 176 614T141 544Q141 483 221 449Q243 440 391 386Q457 358 492 308T528 191Q528 96 460 44Q389 -10 290 -10Q226 -10 145 22Q119 32 105 32Q74
32 63 -7H37V233H63Q64 167 121 102Q149 69 195 50T291 31Q349 31 385 60T421 136Q421 163 407 187T369 225Q347 239 250 276Q166 308 148 317T105 345Q40 397 40 488Q40 570 101 623T256 677Q293 677 325 670T419 639Q427 635 438 635Q469 635 470 675H493Z" />
<glyph unicode="T" glyph-name="T" horiz-adv-x="583" d="M365 631V97Q365 66 369 54T384 33Q404 20 431 20H461V0H122V20H152Q182 20 203 36Q218 48 218 97V631H174Q110 631 78 597T40 491H11V667H573V491H544Q539 563 506 597T409 631H365Z" />
<glyph unicode="U" glyph-name="U" horiz-adv-x="702" d="M246 568V208Q246 126 273 88Q310 36 394 36Q485 36 530 93Q553 122 561 158T570 262V554Q570 591 566 605T545 631Q526 646 487 647V667H696V647Q649 647 629 626T609 554V240Q609 116 547 55Q481 -10
357 -10Q232 -10 161 50Q128 79 114 115T99 208V568Q99 600 95 613T80 634Q61 647 32 647H7V667H331V647H313Q280 647 261 631Q246 618 246 568Z" />
<glyph unicode="V" glyph-name="V" horiz-adv-x="623" d="M365 217L494 554Q504 583 504 601Q504 647 447 647H430V667H633V647Q592 648 568 615T499 466L320 -8H299L92 554Q72 607 56 627T16 647H0V667H294V647H278Q221 647 221 620Q221 613 229 591L365 217Z" />
<glyph unicode="W" glyph-name="W" horiz-adv-x="935" d="M480 418L313 -8H296L103 534Q80 599 63 623T25 647V667H279V647H263Q246 647 236 639T226 617Q226 602 244 553L365 218L463 469L434 553Q415 606 397 626T348 647H337V667H633V647H618Q568 647 568 613Q568
595 590 534L692 237L798 534Q813 581 813 612Q813 627 800 637T768 647H755V667H906V647Q882 643 868 619T821 505L645 -8H626L480 418Z" />
<glyph unicode="X" glyph-name="X" horiz-adv-x="611" d="M269 261L166 111Q144 79 144 61Q144 20 205 20H224V0H-7V20H3Q34 20 65 46T136 130L249 294L129 510Q86 589 59 617T-7 647V667H296V647H279Q260 647 249 639T237 618Q237 604 256 570L336 422L421 542Q445
576 445 601Q445 620 429 633T390 647H377V667H604V647Q558 642 530 620T452 529L356 389L500 135Q535 74 559 47T604 20H616V0H321V20H336Q379 20 379 48Q379 60 369 79L269 261Z" />
<glyph unicode="Y" glyph-name="Y" horiz-adv-x="627" d="M377 314L489 539Q511 584 511 606Q511 625 497 636T458 647H438V667H630V647Q595 642 579 627T534 554L399 278V97Q399 66 403 54T418 33Q437 20 465 20H495V0H156V20H186Q216 20 237 36Q252 48 252 97V255L95
560Q74 604 59 621Q35 647 11 647H-1V667H289V647H274Q230 647 230 621Q230 613 242 588L377 314Z" />
<glyph unicode="Z" glyph-name="Z" horiz-adv-x="623" d="M198 40H361Q474 40 534 107Q570 149 586 231H611L586 0H7L381 629H262Q182 629 139 593T86 478H61L75 667H575L198 40Z" />
<glyph unicode="[" glyph-name="bracketleft" horiz-adv-x="365" d="M91 667H292V634H199V-130H292V-163H91V667Z" />
<glyph unicode="\" glyph-name="backslash" horiz-adv-x="339" d="M45 667H136L333 -163H242L45 667Z" />
<glyph unicode="]" glyph-name="bracketright" horiz-adv-x="365" d="M274 -163H73V-130H166V634H73V667H274V-163Z" />
<glyph unicode="^" glyph-name="asciicircum" horiz-adv-x="500" d="M530 279H468L307 532L135 279H-30L258 700H266L530 279Z" />
<glyph unicode="_" glyph-name="underscore" horiz-adv-x="500" d="M9 -92H491V-165H9V-92Z" />
<glyph unicode="`" glyph-name="grave" horiz-adv-x="500" d="M107 688H234L299 537L107 688Z" />
<glyph unicode="a" glyph-name="a" horiz-adv-x="455" d="M440 77L458 60Q418 -10 348 -10Q279 -10 263 60Q200 -8 138 -8Q96 -8 67 19T38 87Q38 161 127 216Q184 251 263 279V351Q263 390 254 408Q242 429 207 429Q183 429 168 420T152 395Q152 385 165 372Q183
354 183 338Q183 316 163 300T113 283Q85 283 65 302T44 347Q44 396 102 433T239 470Q319 470 360 434Q392 405 392 340V105Q392 54 414 54Q423 54 434 68L440 77ZM263 105V238Q222 220 198 190T174 124Q174 102 183 89T209 75Q230 75 263 105Z" />
<glyph unicode="b" glyph-name="b" horiz-adv-x="476" d="M148 50L83 0H63V586Q63 618 53 631T21 645H11V667H192V419Q224 448 246 459T296 470Q356 470 397 421Q449 359 449 243Q449 132 397 64Q371 30 335 10T263 -10Q193 -10 148 50ZM192 366V115Q192 76 202
56Q219 26 244 26Q270 26 285 57Q310 110 310 247Q310 334 297 372T252 410Q218 410 192 366Z" />
<glyph unicode="c" glyph-name="c" horiz-adv-x="420" d="M375 127L394 110Q320 -10 213 -10Q134 -10 82 47Q27 108 27 219Q27 329 84 399T232 470Q299 470 345 434T391 346Q391 320 374 303T331 286Q293 286 271 326Q260 350 259 389Q258 406 249 416T223 427Q192
427 172 386T151 282Q151 195 188 133T277 71T375 127Z" />
<glyph unicode="d" glyph-name="d" horiz-adv-x="460" d="M268 -10V40Q221 -10 172 -10Q148 -10 123 4T79 42Q27 110 27 235Q27 339 69 404T178 470Q233 470 268 421V589Q268 647 223 647H207V667H397V119Q397 72 410 60Q420 50 434 50Q442 50 448 51V25L288 -10H268ZM268
140V367Q242 414 212 414Q186 414 176 375T166 235Q166 59 217 59Q236 59 253 80Q268 102 268 140Z" />
<glyph unicode="e" glyph-name="e" horiz-adv-x="416" d="M391 238H155Q157 159 188 113T271 66Q303 66 325 82T367 137L391 125Q364 61 317 26T212 -10Q141 -10 90 39Q27 98 27 215Q27 318 74 386Q101 425 139 447T218 470Q259 470 296 446T358 379Q390 324 391
238ZM153 275H276Q274 363 266 391Q262 410 250 421T222 432Q155 432 153 275Z" />
<glyph unicode="f" glyph-name="f" horiz-adv-x="291" d="M196 408V78Q196 20 240 20H261V0H7V20H23Q67 20 67 78V408H7V457H67V530Q67 589 119 633T240 677Q285 677 316 657T348 609Q348 587 329 572T282 556Q260 556 247 567T233 597Q233 608 236 619Q237 623
237 628T232 638T222 643Q196 643 196 603V457H261V408H196Z" />
<glyph unicode="g" glyph-name="g" horiz-adv-x="477" d="M441 453V396H372Q404 344 404 304Q404 241 351 199T219 156H204Q197 157 189 157Q168 157 154 147T139 122Q139 88 190 88Q202 88 215 89H257Q352 89 393 65Q443 36 443 -22Q443 -87 381 -127Q323 -162
228 -162Q134 -162 83 -139T31 -74Q31 -34 95 -15Q48 13 48 62Q48 130 139 172Q90 195 63 233T35 317Q35 382 86 426T212 470Q255 470 296 453H441ZM225 435Q209 435 196 424T176 395Q167 364 167 307Q167 192 221 192Q279 192 279 308Q279 387 260 414Q245 435
225 435ZM218 -27Q160 -27 140 -35Q114 -44 114 -69T141 -107Q175 -124 234 -124Q291 -124 326 -108T362 -66Q362 -45 329 -36T218 -27Z" />
<glyph unicode="h" glyph-name="h" horiz-adv-x="484" d="M192 667V396Q251 470 312 470Q367 470 397 431T427 320V80Q427 21 471 21H478V0H261V21Q298 28 298 80V338Q298 405 264 405Q244 405 229 391T192 338V80Q192 27 230 21V0H13V21H17Q63 21 63 80V587Q63
646 20 646H13V667H192Z" />
<glyph unicode="i" glyph-name="i" horiz-adv-x="252" d="M195 460V80Q195 21 240 21H248V0H15V21H21Q66 21 66 80V380Q66 439 21 439H15V460H195ZM123 673Q151 673 171 652T192 603Q192 574 171 554T122 533Q93 533 73 554T52 604Q52 632 73 652T123 673Z" />
<glyph unicode="j" glyph-name="j" horiz-adv-x="246" d="M210 460V-32Q210 -98 172 -136T66 -174Q13 -174 -18 -153T-50 -96Q-50 -71 -34 -53T6 -35Q28 -35 43 -51T59 -91Q59 -92 57 -108Q56 -112 56 -119Q56 -139 68 -139Q86 -139 86 -95Q86 -85 83 -27Q81 5
81 33V380Q81 439 35 439H25V460H210ZM133 673Q162 673 183 652T204 601Q204 571 183 550T132 528Q101 528 80 549T59 601T80 652T133 673Z" />
<glyph unicode="k" glyph-name="k" horiz-adv-x="496" d="M192 190V79Q192 20 237 20H240V0H12V20H18Q63 20 63 79V588Q63 646 18 646H12V667H192V237L281 335Q317 376 317 403Q317 431 258 440V460H451V440Q419 430 404 419T351 364L289 295L433 67Q452 37 460
30T489 20V0H269V20L281 22Q305 25 305 39Q305 48 289 72L205 204L192 190Z" />
<glyph unicode="l" glyph-name="l" horiz-adv-x="249" d="M192 667V79Q192 20 235 20H241V0H12V20H20Q63 20 63 79V590Q63 648 18 648H12V667H192Z" />
<glyph unicode="m" glyph-name="m" horiz-adv-x="723" d="M195 338V80Q195 21 235 21H239V0H13V21H17Q43 21 54 34T66 80V382Q66 439 25 439H13V460H195V397Q254 470 320 470Q357 470 382 451T431 385Q462 432 489 451T553 470Q613 470 642 420Q666 380 666 304V80Q666
21 710 21H717V0H499V21Q521 27 529 39T537 80V319Q537 408 502 408T431 338V80Q431 52 440 39T471 21V0H264V21Q287 28 294 40T302 80V329Q302 381 292 394Q281 408 267 408Q233 408 195 338Z" />
<glyph unicode="n" glyph-name="n" horiz-adv-x="487" d="M196 333V79Q196 51 203 39T233 20V0H15V20H22Q67 20 67 79V378Q67 440 25 440H18V460H196V391Q229 435 255 452T317 470Q366 470 398 434T431 343V79Q431 20 475 20H482V0H265V20Q287 28 294 39T302 79V333Q302
405 265 405Q232 405 196 333Z" />
<glyph unicode="o" glyph-name="o" horiz-adv-x="467" d="M236 470Q323 470 382 403T441 235Q441 127 383 60Q355 28 314 9T231 -10Q196 -10 159 6T95 51Q27 117 27 229Q27 333 86 401T236 470ZM234 431Q195 431 181 378T166 185Q166 29 227 29Q269 29 285 79T302
256Q302 346 289 386Q282 406 267 418T234 431Z" />
<glyph unicode="p" glyph-name="p" horiz-adv-x="458" d="M192 38V-85Q192 -117 203 -130T243 -143H253V-163H11V-143H19Q63 -143 63 -85V348Q63 382 48 396Q38 406 27 406H16V426L168 466H192V419Q233 470 284 470Q349 470 390 402T431 226Q431 109 380 45Q336
-10 278 -10Q225 -10 192 38ZM192 318V96Q200 74 216 60T249 46Q274 46 283 85T292 227Q292 321 281 360T243 399Q220 399 204 374Q192 356 192 318Z" />
<glyph unicode="q" glyph-name="q" horiz-adv-x="461" d="M325 410L392 465H411V-83Q411 -142 456 -142H465V-163H228V-142H237Q282 -142 282 -83V37Q247 9 225 0T176 -10Q109 -10 68 51T27 213Q27 330 81 399Q107 431 143 450T214 470Q278 470 325 410ZM282 93V319Q282
374 272 399Q259 433 229 433Q162 433 162 204Q162 49 218 49Q257 49 282 93Z" />
<glyph unicode="r" glyph-name="r" horiz-adv-x="355" d="M196 460V389Q243 471 294 471Q319 471 335 452T352 405Q352 379 338 361T302 343Q287 343 265 362Q248 376 236 376Q196 376 196 279V79Q196 20 239 20H252V0H17V20H24Q67 20 67 79V381Q67 440 24 440H17V460H196Z"
/>
<glyph unicode="s" glyph-name="s" horiz-adv-x="380" d="M322 473L329 321H314Q293 372 258 402T185 432Q158 432 140 417T121 381Q121 359 136 346Q149 333 242 281Q350 222 350 130Q350 74 307 34T202 -7Q164 -7 124 10Q98 21 88 21Q67 21 56 -7H41L33 145H50Q64
95 103 62T186 28Q214 28 235 45T256 85Q256 106 239 123Q225 137 212 145T134 190Q31 249 31 337Q31 391 72 429T172 467Q200 467 237 453Q270 442 277 442Q302 442 304 473H322Z" />
<glyph unicode="t" glyph-name="t" horiz-adv-x="297" d="M199 411V104Q199 48 230 48Q251 48 273 77Q275 82 284 92L302 77Q274 30 247 10T185 -10Q130 -10 97 23Q70 50 70 123V411H13V440Q126 516 177 629H199V460H295V411H199Z" />
<glyph unicode="u" glyph-name="u" horiz-adv-x="481" d="M298 0V61Q250 -10 180 -10Q125 -10 90 34Q63 66 63 122V379Q63 440 22 440H16V460H192V151Q192 99 198 80Q206 54 230 54Q268 54 298 124V379Q298 440 255 440H249V460H427V79Q427 20 470 20H477V0H298Z" />
<glyph unicode="v" glyph-name="v" horiz-adv-x="393" d="M242 197L296 374Q301 394 301 402Q301 430 264 440V460H389V440Q363 428 353 415T332 369L204 -13H179L61 358Q44 408 33 423T0 440V460H219V440Q176 439 176 408Q176 399 181 385L242 197Z" />
<glyph unicode="w" glyph-name="w" horiz-adv-x="619" d="M305 309L208 -13H176L69 339Q49 401 39 418T9 440V460H216V440Q197 439 190 433T182 412Q182 404 187 390L241 218L287 370L278 401Q268 433 234 440V460H453V440Q408 439 408 411Q408 402 414 382L468
209L519 370Q527 393 527 407Q527 434 493 440V460H602V440Q584 432 573 414T548 351L437 -13H403L305 309Z" />
<glyph unicode="x" glyph-name="x" horiz-adv-x="493" d="M208 167L146 84Q127 59 127 44Q127 23 168 20H173V0H7V20Q40 22 59 34T106 84L190 196L87 359Q53 413 41 425T7 440V460H242V440Q217 436 208 432T199 419T213 388L268 300L324 373Q344 400 344 414Q344
435 308 440V460H457V440Q428 439 412 428T371 382L287 270L414 70Q434 38 443 29T466 20H476V0H242V20Q242 21 243 21L262 20Q269 19 275 25T282 38Q282 49 268 70L208 167Z" />
<glyph unicode="y" glyph-name="y" horiz-adv-x="407" d="M252 196L300 332Q317 378 317 407Q317 421 308 430T283 440H271V460H419V440Q390 439 377 420T329 310L189 -65Q151 -166 76 -166Q41 -166 16 -144T-9 -90Q-9 -62 7 -45T50 -28Q73 -28 88 -43T104 -80Q104
-87 103 -92Q102 -95 102 -99Q102 -111 114 -111Q135 -111 158 -55L189 21L68 310Q35 393 22 413T-17 440V460H213V440H204Q173 440 173 408Q173 387 192 340L252 196Z" />
<glyph unicode="z" glyph-name="z" horiz-adv-x="430" d="M398 149L377 0H25V20L236 427H195Q127 427 102 408T67 328H44V460H387L392 449L174 32H207Q275 32 314 60T368 149H398Z" />
<glyph unicode="{" glyph-name="braceleft" horiz-adv-x="486" d="M152 -52V145Q152 193 142 218T106 262Q133 280 142 301T152 366V556Q152 605 155 621T170 649T196 663T263 667H352V634H327Q282 635 271 624T260 567V375Q260 314 250 290T210 262Q260 248 260
137V-63V-81Q260 -112 273 -121T327 -130H352V-163H263Q215 -163 199 -160T170 -145Q158 -134 155 -118T152 -52Z" />
<glyph unicode="|" glyph-name="bar" horiz-adv-x="500" d="M202 667H299V-167H202V667Z" />
<glyph unicode="}" glyph-name="braceright" horiz-adv-x="486" d="M334 556V366Q334 323 343 302T380 262Q354 243 344 218T334 145V-52Q334 -101 331 -117T316 -145Q303 -157 287 -160T223 -163H134V-130H159Q205 -130 215 -120T226 -63V137Q226 196 237 225T276
262Q247 266 237 290T226 375V567Q226 612 215 623T159 634H134V667H223Q276 666 290 664T316 649Q328 636 331 621T334 556Z" />
<glyph unicode="~" glyph-name="asciitilde" horiz-adv-x="667" d="M508 734L530 720Q476 610 397 610Q373 610 292 639Q264 650 235 650Q200 650 166 613L158 604L136 617Q198 728 268 728Q294 728 350 708Q404 689 428 689Q472 689 508 734Z" />
</font>
</defs>
</svg>
