<?xml version="1.0" standalone="no"?>
<!DOCTYPE svg PUBLIC "-//W3C//DTD SVG 1.1//EN" "http://www.w3.org/Graphics/SVG/1.1/DTD/svg11.dtd" >
<svg xmlns="http://www.w3.org/2000/svg">
    <defs>
        <font id="NimbusRomanDOT-RegularItalic">
            <font-face font-family="NimbusRomanDOT-RegularItalic"
                       units-per-em="1000"
                       ascent="671"
                       descent="-167"
                       bbox="-169 -263 1038 870"
                    />
            <missing-glyph horiz-adv-x="0" />
            
            <glyph glyph-name="!" unicode="&#x21;" horiz-adv-x="285" d=" M95,94 Q115,94 130,79 Q145,64 145,44 Q145,23 130,8 Q115,-7 95,-7 Q74,-7 59,8 Q44,23 44,44 Q44,65 59,79.5 Q74,94 95,94 M126,154 L104,160 Q140,290 156,369.5 Q172,449 185,560 Q191,614 208.5,645.5 Q226,677 249,677 Q265,677 275,665.5 Q285,654 285,635 Q285,605 271.5,563.5 Q258,522 198,369 Q146,233 126,154"/> 
            <glyph glyph-name="&quot;" unicode="&#x22;" horiz-adv-x="424" d=" M132,453 L140,518 Q150,606 164,634 Q183,677 224,677 Q241,677 250.5,668 Q260,659 260,643 Q260,615 217,518 L187,453 M295,453 L303,518 Q314,606 327,634 Q346,677 388,677 Q405,677 414.5,668 Q424,659 424,643 Q424,615 380,518 L351,453"/> 
            <glyph glyph-name="#" unicode="&#x23;" horiz-adv-x="524" d=" M344,226 L257,0 L210,0 L298,226 L164,226 L77,0 L30,0 L118,226 L27,226 L44,269 L134,269 L190,412 L99,412 L116,455 L207,455 L289,667 L336,667 L253,455 L387,455 L469,667 L516,667 L433,455 L524,455 L507,412 L417,412 L361,269 L452,269 L435,226 M314,269 L370,412 L237,412 L181,269"/> 
            <glyph glyph-name="$" unicode="&#x24;" horiz-adv-x="478" d=" M193,4 L175,-61 L142,-61 L161,6 Q134,10 102.5,26.5 Q71,43 54,61 L91,191 L108,191 Q101,160 101,146 Q101,112 123,79 Q138,53 171,39 L255,333 Q189,384 165,420.5 Q141,457 141,507 Q141,576 191,620.5 Q241,665 318,665 Q328,665 349,662 L367,723 L399,723 L380,657 Q438,639 478,603 L444,485 L425,485 Q430,510 430,523 Q430,596 371,625 L308,404 Q367,356 390,328 Q434,278 434,209 Q434,123 369.5,63.5 Q305,4 211,4 M202,32 L216,32 Q276,32 320,74 Q364,116 364,172 Q364,251 282,314 M280,420 L341,635 Q324,639 313,639 Q270,639 241,608 Q212,577 212,532 Q212,501 227.5,475.5 Q243,450 280,420"/> 
            <glyph glyph-name="%" unicode="&#x25;" horiz-adv-x="703" d=" M263,671 Q297,671 318.5,641 Q340,611 340,562 Q340,473 292.5,401 Q245,329 187,329 Q153,329 131.5,360.5 Q110,392 110,440 Q110,527 157.5,599 Q205,671 263,671 M259,652 Q229,652 200,599 Q183,568 168,507 Q153,446 153,408 Q153,381 162.5,364.5 Q172,348 188,348 Q215,348 241,391 Q262,425 278,489 Q294,553 294,600 Q294,623 284.5,637.5 Q275,652 259,652 M656,667 L703,667 L90,0 L43,0 M555,338 Q589,338 610.5,308 Q632,278 632,229 Q632,140 584.5,67.5 Q537,-5 479,-5 Q445,-5 423.5,26.5 Q402,58 402,106 Q402,193 449.5,265.5 Q497,338 555,338 M551,319 Q521,319 492,266 Q475,234 460,173.5 Q445,113 445,74 Q445,47 454.5,30.5 Q464,14 480,14 Q507,14 533,57 Q554,92 570,155.5 Q586,219 586,266 Q586,290 576.5,304.5 Q567,319 551,319"/> 
            <glyph glyph-name="&amp;" unicode="&#x26;" horiz-adv-x="626" d=" M603,69 L626,69 Q595,25 564.5,6 Q534,-13 495,-13 Q428,-13 371,61 Q292,-12 205,-12 Q126,-12 76.5,35.5 Q27,83 27,159 Q27,245 102,316 Q157,367 265,400 Q261,437 261,460 Q261,566 317,622 Q364,669 425,669 Q463,669 488.5,642 Q514,615 514,575 Q514,508 451,454 Q415,423 351,400 Q375,263 415,161 Q475,254 475,300 Q475,332 441,335 L441,353 L614,353 L614,335 Q578,330 550.5,304 Q523,278 488,218 Q455,160 430,127 L447,98 Q497,33 539,33 Q578,33 603,69 M346,430 Q349,431 353,433 Q398,453 424,493 Q450,533 450,583 Q450,605 439,618 Q428,631 410,631 Q378,631 359.5,595 Q341,559 341,495 Q341,474 344,444 Q344,443 344.5,441.5 Q345,440 345,438.5 Q345,437 345.5,434.5 Q346,432 346,430 M271,369 Q199,337 171,306 Q125,257 125,187 Q125,128 161,85 Q197,42 246,42 Q296,42 354,88 Q299,169 271,369"/> 
            <glyph glyph-name="'" unicode="&#x27;" horiz-adv-x="260" d=" M132,453 L140,518 Q150,606 164,634 Q183,677 224,677 Q241,677 250.5,668 Q260,659 260,643 Q260,615 217,518 L187,453"/> 
            <glyph glyph-name="(" unicode="&#x28;" horiz-adv-x="403" d=" M393,677 L403,660 Q335,618 291,571 Q247,524 207,451 Q108,270 108,77 Q108,-63 189,-158 L177,-177 Q37,-31 37,129 Q37,234 75,337 Q113,440 180,518 Q225,571 272.5,606 Q320,641 393,677"/> 
            <glyph glyph-name=")" unicode="&#x29;" horiz-adv-x="341" d=" M-15,-177 L-25,-160 Q43,-118 87.5,-71 Q132,-24 171,49 Q270,230 270,423 Q270,563 189,658 L201,677 Q341,532 341,371 Q341,266 303,163 Q265,60 198,-18 Q153,-71 105.5,-106 Q58,-141 -15,-177"/> 
            <glyph glyph-name="*" unicode="&#x2A;" horiz-adv-x="509" d=" M337,506 Q362,509 408,536 Q443,556 464,556 Q484,556 496.5,544.5 Q509,533 509,514 Q509,496 494,484 Q479,472 456,472 Q440,472 387,485 Q371,489 358,489 Q350,489 340,487 Q347,472 355.5,462.5 Q364,453 390,430 Q429,394 429,366 Q429,349 417.5,337 Q406,325 389,325 Q374,325 361.5,336 Q349,347 344,366 Q339,383 335,434 Q334,456 323,479 Q303,459 284,413 Q257,354 221,354 Q206,354 194,366 Q182,378 182,394 Q182,419 209,438 Q222,447 271,467 Q296,478 310,493 Q294,501 282.5,503.5 Q271,506 235,510 Q158,518 158,563 Q158,580 170,591.5 Q182,603 198,603 Q218,603 233,591.5 Q248,580 282,539 Q300,519 319,509 Q321,519 321,530 Q321,540 312,586 Q308,605 308,622 Q308,646 319.5,661.5 Q331,677 350,677 Q368,677 379.5,664.5 Q391,652 391,633 Q391,618 384.5,604.5 Q378,591 354,550 Q341,526 337,506"/> 
            <glyph glyph-name="+" unicode="&#x2B;" horiz-adv-x="487" d=" M66,357 L253,357 L253,550 L300,550 L300,357 L487,357 L487,310 L300,310 L300,117 L253,117 L253,310 L66,310"/> 
            <glyph glyph-name="," unicode="&#x2C;" horiz-adv-x="120" d=" M-6,-116 L-25,-93 Q53,-58 53,-19 Q53,-6 33,13 Q20,24 20,42 Q20,62 35,77 Q50,92 69,92 Q90,92 105,74.5 Q120,57 120,34 Q120,-9 86,-49.5 Q52,-90 -6,-116"/> 
            <glyph glyph-name="-" unicode="&#x2D;" horiz-adv-x="213" d=" M213,269 L193,197 L-7,197 L14,269"/> 
            <glyph glyph-name="." unicode="&#x2E;" horiz-adv-x="118" d=" M49,92 Q89,92 103.5,77.5 Q118,63 118,43 Q118,22 103.5,7.5 Q89,-7 68,-7 Q48,-7 33.5,7.5 Q19,22 19,43 Q19,63 49,92"/> 
            <glyph glyph-name="/" unicode="&#x2F;" horiz-adv-x="487" d=" M487,667 L-14,-167 L-85,-167 L421,667"/> 
            <glyph glyph-name="0" unicode="&#x30;" horiz-adv-x="487" d=" M346,675 Q410,675 448.5,616 Q487,557 487,459 Q487,343 446,233.5 Q405,124 338.5,57 Q272,-10 201,-10 Q140,-10 100.5,52 Q61,114 61,210 Q61,324 102,432.5 Q143,541 209.5,608 Q276,675 346,675 M341,650 Q279,650 221,538 Q188,473 159.5,348 Q131,223 131,143 Q131,85 154,44 Q172,15 204,15 Q260,15 311,106 Q351,178 382,309 Q413,440 413,536 Q413,588 393,619 Q373,650 341,650"/> 
            <glyph glyph-name="1" unicode="&#x31;" horiz-adv-x="434" d=" M243,634 L434,680 L262,100 Q255,75 255,59 Q255,42 269,30 Q283,18 304,18 L326,18 L321,0 L73,0 L78,18 L92,18 Q130,18 149.5,37 Q169,56 184,106 L318,557 Q327,591 327,598 Q327,609 317.5,617.5 Q308,626 297,626 Q287,626 267,621 Q266,621 250,617"/> 
            <glyph glyph-name="2" unicode="&#x32;" horiz-adv-x="474" d=" M406,130 L349,0 L36,0 L39,11 Q162,112 279,247 Q399,388 399,482 Q399,535 367,568.5 Q335,602 284,602 Q248,602 222.5,584.5 Q197,567 173,526 L155,532 Q193,605 235,637.5 Q277,670 333,670 Q394,670 434,627.5 Q474,585 474,521 Q474,455 422.5,375.5 Q371,296 250,176 L135,62 L291,62 Q330,62 350,77 Q370,92 389,137"/> 
            <glyph glyph-name="3" unicode="&#x33;" horiz-adv-x="481" d=" M210,558 L195,567 Q230,623 267,648.5 Q304,674 350,674 Q405,674 443,638.5 Q481,603 481,551 Q481,485 426,441 Q388,410 319,394 Q408,343 408,240 Q408,136 337,63 Q266,-10 165,-10 Q114,-10 82,5.5 Q50,21 50,46 Q50,63 63,74 Q76,85 96,85 Q114,85 127,79.5 Q140,74 175,52 Q209,31 239,31 Q280,31 309,76.5 Q338,122 338,188 Q338,281 284,329 Q247,361 171,367 L176,383 Q281,389 338,430 Q400,475 400,536 Q400,575 374.5,601.5 Q349,628 311,628 Q249,628 210,558"/> 
            <glyph glyph-name="4" unicode="&#x34;" horiz-adv-x="483" d=" M275,190 L50,190 L67,249 L447,682 L483,682 L361,249 L431,249 L414,190 L344,190 L289,0 L220,0 M292,249 L380,559 L112,249"/> 
            <glyph glyph-name="5" unicode="&#x35;" horiz-adv-x="504" d=" M269,600 L225,507 Q305,499 354,453 Q421,389 421,285 Q421,175 333,85 Q245,-5 137,-5 Q100,-5 74,13 Q48,31 48,56 Q48,73 60,84.5 Q72,96 89,96 Q112,96 141,71 Q175,42 207,42 Q262,42 308,105 Q354,168 354,242 Q354,291 333.5,336 Q313,381 281,404 Q245,428 165,435 L271,667 L504,667 L485,600"/> 
            <glyph glyph-name="6" unicode="&#x36;" horiz-adv-x="498" d=" M498,676 L493,659 Q417,646 341.5,582 Q266,518 206,415 Q260,434 295,434 Q360,434 401,386 Q442,338 442,262 Q442,156 372.5,73.5 Q303,-9 214,-9 Q146,-9 102,50 Q58,109 58,200 Q58,303 108.5,401.5 Q159,500 248,569 Q362,659 498,676 M186,370 Q126,239 126,140 Q126,84 148,50.5 Q170,17 207,17 Q260,17 303,79 Q325,109 342,169 Q359,229 359,276 Q359,329 332,364 Q305,399 264,399 Q226,399 186,370"/> 
            <glyph glyph-name="7" unicode="&#x37;" horiz-adv-x="534" d=" M445,597 L288,597 Q233,597 213,584.5 Q193,572 159,518 L137,518 L219,667 L534,667 L177,-7 L135,13"/> 
            <glyph glyph-name="8" unicode="&#x38;" horiz-adv-x="494" d=" M338,368 Q385,315 405,273.5 Q425,232 425,186 Q425,109 364,49.5 Q303,-10 224,-10 Q153,-10 105.5,34 Q58,78 58,143 Q58,225 124,286 Q163,322 242,354 Q163,444 163,513 Q163,578 216.5,626 Q270,674 343,674 Q408,674 451,636 Q494,598 494,541 Q494,472 436,423 Q401,394 338,368 M323,383 Q342,393 357,403 Q434,453 434,543 Q434,589 406.5,616.5 Q379,644 334,644 Q288,644 261.5,616 Q235,588 235,541 Q235,505 252.5,473.5 Q270,442 323,383 M258,337 Q251,333 242.5,328.5 Q234,324 232,323 Q180,294 149.5,244 Q119,194 119,138 Q119,82 147.5,49.5 Q176,17 225,17 Q280,17 319.5,58 Q359,99 359,157 Q359,200 337.5,238.5 Q316,277 258,337"/> 
            <glyph glyph-name="9" unicode="&#x39;" horiz-adv-x="491" d=" M51,-10 L56,6 Q131,19 207,83.5 Q283,148 343,250 Q289,231 254,231 Q189,231 148,279 Q107,327 107,403 Q107,509 176.5,591.5 Q246,674 335,674 Q403,674 447,615 Q491,556 491,465 Q491,361 440.5,263 Q390,165 301,96 Q185,6 51,-10 M363,295 Q423,427 423,525 Q423,581 401,614.5 Q379,648 342,648 Q289,648 246,586 Q224,555 207.5,495 Q191,435 191,388 Q191,335 218,300.5 Q245,266 285,266 Q323,266 363,295"/> 
            <glyph glyph-name=":" unicode="&#x3A;" horiz-adv-x="194" d=" M49,92 Q89,92 103.5,77.5 Q118,63 118,43 Q118,22 103.5,7.5 Q89,-7 68,-7 Q48,-7 33.5,7.5 Q19,22 19,43 Q19,63 49,92 M125,358 Q165,358 179.5,343.5 Q194,329 194,309 Q194,288 179.5,273.5 Q165,259 144,259 Q124,259 109.5,273.5 Q95,288 95,309 Q95,329 125,358"/> 
            <glyph glyph-name=";" unicode="&#x3B;" horiz-adv-x="202" d=" M-6,-116 L-25,-93 Q53,-58 53,-19 Q53,-6 33,13 Q20,24 20,42 Q20,62 35,77 Q50,92 69,92 Q90,92 105,74.5 Q120,57 120,34 Q120,-9 86,-49.5 Q52,-90 -6,-116 M133,358 Q173,358 187.5,343.5 Q202,329 202,309 Q202,288 187.5,273.5 Q173,259 152,259 Q132,259 117.5,273.5 Q103,288 103,309 Q103,329 133,358"/> 
            <glyph glyph-name="&lt;" unicode="&#x3C;" horiz-adv-x="491" d=" M491,614 L491,575 L181,373 L491,166 L491,64 L77,341 L77,348"/> 
            <glyph glyph-name="=" unicode="&#x3D;" horiz-adv-x="486" d=" M66,423 L486,423 L486,376 L66,376 M66,291 L486,291 L486,244 L66,244"/> 
            <glyph glyph-name="&gt;" unicode="&#x3E;" horiz-adv-x="491" d=" M77,64 L77,103 L387,304 L77,511 L77,614 L491,337 L491,330"/> 
            <glyph glyph-name="?" unicode="&#x3F;" horiz-adv-x="427" d=" M151,92 Q171,92 185.5,77 Q200,62 200,42 Q200,22 185.5,7.5 Q171,-7 150,-7 Q130,-7 115.5,7.5 Q101,22 101,43 Q101,63 115.5,77.5 Q130,92 151,92 M177,156 L154,156 Q169,242 194,294 Q219,346 276,410 Q351,497 351,574 Q351,656 285,656 Q256,656 236,644 Q216,632 216,615 Q216,604 226,591 Q237,575 237,564 Q237,548 225,536.5 Q213,525 197,525 Q180,525 169,538.5 Q158,552 158,572 Q158,614 197,645.5 Q236,677 288,677 Q346,677 386.5,636.5 Q427,596 427,538 Q427,490 390,444 Q374,424 360.5,412.5 Q347,401 282,348 Q239,314 209,258 Q179,202 177,156"/> 
            <glyph glyph-name="@" unicode="&#x40;" horiz-adv-x="755" d=" M571,127 L609,110 Q548,66 508,42 Q421,-7 330,-7 Q217,-7 143,66 Q69,139 69,251 Q69,355 129.5,455 Q190,555 288,613 Q392,674 511,674 Q623,674 689,616.5 Q755,559 755,463 Q755,353 672,255.5 Q589,158 496,158 Q465,158 447.5,177 Q430,196 430,230 Q430,236 431,240 Q353,157 289,157 Q263,157 246.5,175.5 Q230,194 230,223 Q230,277 270,343.5 Q310,410 368,456 Q426,502 473,502 Q508,502 521,467 L532,491 L602,500 L512,288 Q492,239 492,222 Q492,203 518,203 Q566,203 628,268 Q706,351 706,453 Q706,532 651.5,580 Q597,628 507,628 Q362,628 256,530 Q199,478 161.5,399 Q124,320 124,254 Q124,215 142,172 Q160,129 188,100 Q249,39 346,39 Q421,39 495,80 Q528,98 571,127 M470,468 Q421,468 353,368 Q301,292 301,241 Q301,212 329,212 Q372,212 428,283 Q456,318 476.5,364.5 Q497,411 497,438 Q497,468 470,468"/> 
            <glyph glyph-name="A" unicode="&#x41;" horiz-adv-x="512" d=" M341,209 L164,209 L66,71 Q55,55 55,45 Q55,18 99,18 L118,18 L113,0 L-83,0 L-78,18 L-67,18 Q-40,18 -20,33 Q0,48 31,91 L447,667 L465,667 L429,105 Q427,75 427,68 Q427,40 440.5,29 Q454,18 489,18 L512,18 L507,0 L244,0 L249,18 L272,18 Q307,18 319,32.5 Q331,47 334,91 M344,245 L359,483 L190,245"/> 
            <glyph glyph-name="B" unicode="&#x42;" horiz-adv-x="579" d=" M159,667 L385,667 Q482,667 529,630 Q579,590 579,524 Q579,489 560.5,453.5 Q542,418 512,395 Q479,369 412,352 Q519,312 519,214 Q519,162 493,116 Q467,70 421,42 Q381,17 331.5,8.5 Q282,0 171,0 L-20,0 L-15,18 Q34,19 54.5,35.5 Q75,52 90,105 L222,566 Q229,587 229,607 Q229,635 204,644 Q189,649 154,649 M332,626 L259,370 Q295,368 308,368 Q386,368 435,413.5 Q484,459 484,532 Q484,578 453.5,604 Q423,630 368,630 Q352,630 332,626 M249,335 L166,47 Q201,38 227,38 Q310,38 363,89.5 Q416,141 416,222 Q416,335 272,335"/> 
            <glyph glyph-name="C" unicode="&#x43;" horiz-adv-x="673" d=" M560,161 L573,153 Q519,71 452,32 Q384,-9 317,-9 Q207,-9 135,67.5 Q63,144 63,260 Q63,348 110.5,435.5 Q158,523 241,588 Q345,672 467,672 Q523,672 585,654 Q604,648 614,648 Q640,648 657,669 L673,669 L623,461 L606,461 Q611,489 611,508 Q611,568 574,604.5 Q537,641 476,641 Q431,641 382,617 Q333,593 293,550 Q238,493 202.5,404.5 Q167,316 167,235 Q167,147 220,90.5 Q273,34 356,34 Q467,34 560,161"/> 
            <glyph glyph-name="D" unicode="&#x44;" horiz-adv-x="654" d=" M-20,0 L-15,18 Q34,19 54.5,35.5 Q75,52 90,105 L223,569 Q230,595 230,609 Q230,635 205,644 Q190,649 156,649 L161,667 L380,667 Q456,667 501.5,651.5 Q547,636 583,599 Q654,525 654,402 Q654,311 610,224 Q566,137 491,81 Q383,0 232,0 M337,630 L184,95 Q179,78 179,66 Q179,38 222,38 Q375,38 457,133 Q500,183 526,261.5 Q552,340 552,420 Q552,517 503,575 Q454,633 371,633 Q361,633 337,630"/> 
            <glyph glyph-name="E" unicode="&#x45;" horiz-adv-x="634" d=" M250,333 L181,92 Q175,73 175,65 Q175,47 192,42 Q209,37 272,37 Q376,37 451,90 Q496,122 529,189 L545,189 L480,0 L-11,0 L-6,18 Q38,20 57.5,37 Q77,54 90,105 L223,566 Q230,594 230,607 Q230,635 205,644 Q188,649 152,649 L157,667 L634,667 L588,507 L571,507 Q577,529 577,546 Q577,592 545.5,611 Q514,630 438,630 L335,630 L260,369 L326,369 Q366,369 386.5,375.5 Q407,382 425,400 Q444,419 460,469 L478,469 L408,227 L391,227 Q402,265 402,286 Q402,311 384.5,322 Q367,333 327,333"/> 
            <glyph glyph-name="F" unicode="&#x46;" horiz-adv-x="625" d=" M251,332 L184,100 Q177,74 177,59 Q177,32 202,24 Q218,18 259,18 L276,18 L270,0 L-11,0 L-6,18 Q38,20 57.5,37.5 Q77,55 91,106 L223,566 Q230,594 230,607 Q230,635 205,644 Q188,649 153,649 L159,667 L625,667 L577,502 L559,502 Q573,542 573,560 Q573,593 546,611.5 Q519,630 471,630 L336,630 L261,368 L334,368 Q403,368 433,408 Q444,423 458,468 L476,468 L407,226 L389,226 Q402,274 402,289 Q402,332 337,332"/> 
            <glyph glyph-name="G" unicode="&#x47;" horiz-adv-x="657" d=" M657,667 L610,463 L592,463 Q600,504 600,517 Q600,570 559.5,603.5 Q519,637 454,637 Q318,637 234,486 Q202,428 182,351.5 Q162,275 162,210 Q162,122 205,74 Q225,52 255.5,38.5 Q286,25 317,25 Q360,25 407,46 L461,237 Q468,257 468,278 Q468,305 443,314 Q426,319 390,319 L381,319 L386,337 L655,337 L650,319 Q608,317 588,299 Q568,281 555,231 L498,33 Q393,-11 316,-11 Q202,-11 132,60.5 Q62,132 62,248 Q62,331 94,408.5 Q126,486 179,543.5 Q232,601 304,635.5 Q376,670 453,670 Q513,670 579,643 Q592,638 598,638 Q621,638 641,667"/> 
            <glyph glyph-name="H" unicode="&#x48;" horiz-adv-x="793" d=" M252,332 L185,100 Q178,74 178,59 Q178,32 203,23 Q218,18 248,18 L243,0 L-14,0 L-9,18 Q37,20 57,37 Q77,54 91,105 L223,566 Q230,594 230,608 Q230,635 205,644 Q190,649 159,649 L164,667 L434,667 L429,649 Q375,649 354,632.5 Q333,616 317,561 L263,369 L530,369 L586,566 Q593,587 593,608 Q593,635 568,644 Q553,649 522,649 L528,667 L793,667 L788,649 Q737,649 716.5,632 Q696,615 681,561 L549,100 Q542,74 542,59 Q542,32 567,23 Q582,18 614,18 L608,0 L344,0 L350,18 Q399,19 419.5,36 Q440,53 454,105 L519,332"/> 
            <glyph glyph-name="I" unicode="&#x49;" horiz-adv-x="434" d=" M248,18 L243,0 L-14,0 L-9,18 Q37,20 57,37 Q77,54 91,106 L223,567 Q230,593 230,608 Q230,635 205,644 Q190,649 159,649 L164,667 L434,667 L429,649 Q375,649 354,632.5 Q333,616 317,561 L185,100 Q178,74 178,59 Q178,32 203,23 Q218,18 248,18"/> 
            <glyph glyph-name="J" unicode="&#x4A;" horiz-adv-x="485" d=" M225,649 L230,667 L485,667 L480,649 Q443,647 424,628 Q405,609 392,561 L286,190 Q259,96 213,50 Q152,-11 83,-11 Q39,-11 9.5,15 Q-20,41 -20,80 Q-20,110 -1,131 Q18,152 44,152 Q63,152 76.5,139 Q90,126 90,107 Q90,89 76,75 Q62,61 62,49 Q62,39 70.5,32.5 Q79,26 91,26 Q114,26 134.5,50.5 Q155,75 168,117 L296,567 Q303,587 303,608 Q303,635 278,644 Q266,649 225,649"/> 
            <glyph glyph-name="K" unicode="&#x4B;" horiz-adv-x="721" d=" M255,351 L184,100 Q178,77 178,59 Q178,36 194.5,27 Q211,18 255,18 L249,0 L-17,0 L-12,18 Q35,19 55.5,36.5 Q76,54 90,106 L222,567 Q229,593 229,608 Q229,635 204,644 Q189,649 155,649 L160,667 L425,667 L420,649 Q371,648 351,631 Q331,614 317,561 L261,369 L544,605 Q565,622 565,631 Q565,649 522,649 L516,649 L522,667 L721,667 L715,649 Q663,648 607,605 L339,387 L473,131 Q509,63 537.5,40 Q566,17 613,18 L607,0 L339,0 L345,18 Q408,22 408,53 Q408,71 392,100"/> 
            <glyph glyph-name="L" unicode="&#x4C;" horiz-adv-x="562" d=" M562,185 L499,0 L-13,0 L-8,18 Q38,19 57,36 Q76,53 90,105 L223,567 Q229,588 229,608 Q229,635 204,644 Q192,649 151,649 L156,667 L441,667 L435,649 Q376,650 354.5,633.5 Q333,617 317,561 L185,98 Q177,72 177,62 Q177,34 214,34 L303,34 Q404,34 452,64 Q509,101 544,185"/> 
            <glyph glyph-name="M" unicode="&#x4D;" horiz-adv-x="896" d=" M377,153 L732,667 L896,667 L891,649 Q840,649 819,632 Q798,615 784,561 L651,100 Q644,74 644,59 Q644,32 669,23 Q684,18 717,18 L712,0 L446,0 L452,18 Q499,19 519.5,36.5 Q540,54 555,106 L686,543 L318,0 L300,0 L252,567 L119,100 Q112,80 112,59 Q112,32 137,23 Q152,18 188,18 L182,0 L-23,0 L-18,18 Q29,19 49,36 Q69,53 83,106 L226,605 Q229,614 229,616 Q229,628 205,640 Q194,645 153,649 L158,667 L334,667"/> 
            <glyph glyph-name="N" unicode="&#x4E;" horiz-adv-x="737" d=" M253,544 L126,100 Q119,74 119,59 Q119,32 144,23 Q159,18 195,18 L190,0 L-18,0 L-13,18 Q35,19 55,36 Q75,53 90,105 L232,602 Q205,650 147,650 L128,650 L132,667 L308,667 L482,180 L593,566 Q599,588 599,608 Q599,630 583,639 Q567,648 526,649 L532,667 L737,667 L732,649 Q685,648 664.5,630.5 Q644,613 630,561 L467,-8 L453,-8"/> 
            <glyph glyph-name="O" unicode="&#x4F;" horiz-adv-x="661" d=" M444,670 Q541,670 601,607 Q661,544 661,443 Q661,352 615,254 Q569,156 492,81 Q398,-10 273,-10 Q172,-10 113.5,51.5 Q55,113 55,219 Q55,304 93,393 Q131,482 199,553 Q252,608 317,639 Q382,670 444,670 M436,633 Q398,633 359.5,611 Q321,589 292,551 Q234,474 195.5,365.5 Q157,257 157,170 Q157,105 191,64.5 Q225,24 279,24 Q329,24 378,62 Q427,100 464,167 Q508,246 533.5,332 Q559,418 559,486 Q559,554 526,593.5 Q493,633 436,633"/> 
            <glyph glyph-name="P" unicode="&#x50;" horiz-adv-x="584" d=" M249,327 L184,100 Q177,74 177,59 Q177,32 202,23 Q215,18 256,18 L251,0 L-18,0 L-13,18 Q35,19 55.5,36 Q76,53 90,106 L222,567 Q229,588 229,608 Q229,635 204,644 Q189,649 155,649 L160,667 L382,667 Q476,667 530,627 Q584,587 584,517 Q584,427 514.5,370 Q445,313 335,313 Q299,313 249,327 M334,623 L258,358 Q289,348 316,348 Q381,348 426,388 Q452,411 468,448 Q484,485 484,521 Q484,571 456.5,600 Q429,629 382,629 Q363,629 334,623"/> 
            <glyph glyph-name="Q" unicode="&#x51;" horiz-adv-x="661" d=" M304,-9 L217,-70 Q227,-69 240,-69 Q285,-69 382,-90 Q426,-100 469,-100 Q559,-100 613,-29 L626,-38 Q582,-95 547,-118 Q479,-165 394,-165 Q355,-165 253,-143 Q166,-125 136,-125 Q107,-125 83,-142 L74,-131 L241,-9 Q152,2 103.5,62.5 Q55,123 55,222 Q55,305 94,394.5 Q133,484 200,553 Q253,608 317.5,639 Q382,670 444,670 Q541,670 601,607 Q661,544 661,442 Q661,352 614.5,252.5 Q568,153 492,80 Q407,-2 304,-9 M436,633 Q398,633 359.5,611 Q321,589 292,551 Q234,474 195.5,365.5 Q157,257 157,170 Q157,105 191,64.5 Q225,24 279,24 Q329,24 378,62 Q427,100 464,167 Q508,246 533.5,332 Q559,418 559,486 Q559,554 526,593.5 Q493,633 436,633"/> 
            <glyph glyph-name="R" unicode="&#x52;" horiz-adv-x="586" d=" M249,330 L184,100 Q177,79 177,59 Q177,32 202,23 Q217,18 252,18 L247,0 L-19,0 L-14,18 Q35,19 55.5,35.5 Q76,52 91,105 L223,566 Q230,592 230,607 Q230,635 205,644 Q190,649 156,649 L161,667 L409,667 Q485,667 532.5,627.5 Q580,588 580,524 Q580,447 514,387 Q476,352 402,330 L487,117 Q508,63 529.5,41 Q551,19 586,16 L582,0 L435,0 L310,321 Q294,323 292,323 Q266,325 249,330 M335,627 L258,358 Q287,352 312,352 Q382,352 422,386 Q448,409 465.5,448 Q483,487 483,523 Q483,565 459,595 Q433,630 378,630 Q365,630 335,627"/> 
            <glyph glyph-name="S" unicode="&#x53;" horiz-adv-x="564" d=" M564,667 L509,448 L492,448 Q497,475 497,493 Q497,550 455,589 Q413,628 351,628 Q302,628 268.5,599.5 Q235,571 235,529 Q235,497 254,468.5 Q273,440 322,397 Q375,351 397,329.5 Q419,308 436,283 Q476,227 476,171 Q476,131 455,91.5 Q434,52 399,26 Q345,-15 265,-15 Q208,-15 134,15 Q102,27 91,27 Q65,27 42,-17 L25,-17 L76,230 L94,230 Q89,193 89,177 Q89,113 135,68 Q181,23 246,23 Q302,23 340,60.5 Q378,98 378,154 Q378,193 358.5,225 Q339,257 290,298 Q205,370 179,402 Q143,448 143,498 Q143,566 201,617 Q259,668 336,668 Q388,668 449,643 Q480,630 493,630 Q526,630 545,667"/> 
            <glyph glyph-name="T" unicode="&#x54;" horiz-adv-x="681" d=" M447,626 L297,100 Q290,80 290,59 Q290,32 315,23 Q332,18 369,18 L379,18 L373,0 L85,0 L90,18 Q146,18 167,34.5 Q188,51 203,106 L352,626 L289,626 Q201,626 153,578 Q126,551 110,491 L91,491 L141,667 L681,667 L631,491 L614,491 Q622,528 622,560 Q622,626 544,626"/> 
            <glyph glyph-name="U" unicode="&#x55;" horiz-adv-x="765" d=" M139,649 L144,667 L418,667 L413,649 Q361,649 340.5,632 Q320,615 305,561 L219,262 Q200,196 200,155 Q200,105 240,71.5 Q280,38 339,38 Q404,38 455,90 Q501,138 529,234 L624,567 Q631,588 631,608 Q631,635 606,644 Q591,649 560,649 L565,667 L765,667 L760,649 Q713,648 692.5,630.5 Q672,613 657,561 L557,210 Q526,106 459.5,49 Q393,-8 301,-8 Q221,-8 165.5,43.5 Q110,95 110,168 Q110,212 124,262 L212,567 Q218,588 218,608 Q218,631 200.5,640 Q183,649 139,649"/> 
            <glyph glyph-name="V" unicode="&#x56;" horiz-adv-x="722" d=" M263,176 L565,587 Q581,609 581,625 Q581,636 570.5,642.5 Q560,649 543,649 L519,649 L524,667 L722,667 L717,649 Q684,649 652,624.5 Q620,600 578,542 L174,-5 L158,-5 L194,560 Q194,570 194.5,578.5 Q195,587 196,591 L196,595 Q196,626 185,637.5 Q174,649 143,649 L109,649 L114,667 L381,667 L376,649 L352,649 Q321,649 303,631 Q289,616 287,574"/> 
            <glyph glyph-name="W" unicode="&#x57;" horiz-adv-x="989" d=" M498,469 L180,0 L163,0 L191,570 L191,586 Q191,623 178.5,636 Q166,649 131,649 L110,649 L115,667 L378,667 L373,649 L358,649 Q315,649 301,632.5 Q287,616 284,563 L265,189 L498,541 L498,591 Q498,623 484.5,636 Q471,649 437,649 L415,649 L420,667 L684,667 L679,649 L664,649 Q622,649 604,631 Q592,619 591,585 L569,189 L829,577 Q850,606 850,622 Q850,634 839,641.5 Q828,649 809,649 L790,649 L795,667 L989,667 L984,649 Q921,649 848,541 L485,0 L471,0"/> 
            <glyph glyph-name="X" unicode="&#x58;" horiz-adv-x="687" d=" M287,268 L126,74 Q108,52 108,40 Q108,18 154,18 L175,18 L169,0 L-39,0 L-33,18 Q-6,18 35.5,45.5 Q77,73 109,113 L277,312 L214,563 Q203,610 182,631 Q164,649 127,649 L109,649 L115,667 L381,667 L375,649 L360,649 Q304,649 304,611 Q304,597 310,569 L349,403 L498,582 Q523,612 523,628 Q523,649 491,649 L481,649 L487,667 L687,667 L681,649 Q635,647 603,627 Q571,607 522,550 L360,357 L418,123 Q434,61 450.5,39.5 Q467,18 501,18 L513,18 L507,0 L254,0 L260,18 L277,18 Q335,18 335,62 Q335,68 331,88"/> 
            <glyph glyph-name="Y" unicode="&#x59;" horiz-adv-x="694" d=" M368,313 L307,100 Q300,79 300,59 Q300,29 332,21 Q342,18 383,18 L377,0 L90,0 L96,18 Q152,17 173.5,33.5 Q195,50 211,106 L273,324 L202,575 Q191,615 171.5,632 Q152,649 117,649 L96,649 L102,667 L383,667 L378,649 L357,649 Q293,649 293,609 Q293,600 300,575 L357,360 L512,575 Q535,607 535,621 Q535,649 483,649 L467,649 L473,667 L694,667 L688,649 Q613,648 535,541"/> 
            <glyph glyph-name="Z" unicode="&#x5A;" horiz-adv-x="676" d=" M155,39 L298,39 Q391,39 442,52.5 Q493,66 524,98 Q554,129 569,179 L591,179 L532,0 L-3,0 L519,629 L354,629 Q274,629 236,622 Q198,615 172,595 Q143,572 121,510 L97,510 L151,667 L676,667"/> 
            <glyph glyph-name="[" unicode="&#x5B;" horiz-adv-x="346" d=" M250,642 L25,-142 L114,-142 L107,-167 L-54,-167 L185,667 L346,667 L339,642"/> 
            <glyph glyph-name="\" unicode="&#x5C;" horiz-adv-x="314" d=" M164,667 L230,667 L314,-167 L247,-167"/> 
            <glyph glyph-name="]" unicode="&#x5D;" horiz-adv-x="363" d=" M59,-142 L284,642 L195,642 L202,667 L363,667 L124,-167 L-37,-167 L-30,-142"/> 
            <glyph glyph-name="^" unicode="&#x5E;" horiz-adv-x="559" d=" M559,286 L520,286 L318,596 L111,286 L9,286 L286,700 L293,700"/> 
            <glyph glyph-name="_" unicode="&#x5F;" horiz-adv-x="512" d=" M56,-88 L512,-88 L512,-132 L56,-132"/> 
            <glyph glyph-name="`" unicode="&#x60;" horiz-adv-x="377" d=" M246,648 L352,648 L377,497"/> 
            <glyph glyph-name="a" unicode="&#x61;" horiz-adv-x="454" d=" M428,102 L441,89 Q367,-15 311,-15 Q291,-15 280,-3 Q269,9 269,30 Q269,44 284,96 Q284,97 285,100.5 Q286,104 287,109.5 Q288,115 289,118 Q239,51 203,26 Q150,-12 104,-12 Q66,-12 42,18 Q18,48 18,97 Q18,170 61,251.5 Q104,333 168.5,387.5 Q233,442 291,442 Q349,442 363,374 L378,428 L454,438 L350,75 Q344,56 344,50 Q344,38 356,38 Q384,38 428,102 M293,413 Q236,413 179,330 Q95,208 95,114 Q95,46 149,46 Q195,46 244,103 Q287,151 316,223 Q345,295 345,351 Q345,380 331,396.5 Q317,413 293,413"/> 
            <glyph glyph-name="b" unicode="&#x62;" horiz-adv-x="444" d=" M30,34 L190,591 Q196,610 196,618 Q196,626 188,632.5 Q180,639 170,639 Q166,639 152,637 L141,636 L146,655 Q201,660 281,672 L199,384 Q241,420 267.5,433 Q294,446 326,446 Q378,446 411,409 Q444,372 444,315 Q444,247 411,176 Q378,105 324,56 Q249,-13 160,-13 Q91,-13 30,34 M170,282 L99,37 Q128,17 165,17 Q228,17 281,80 Q312,117 334.5,181.5 Q357,246 357,299 Q357,342 337.5,367 Q318,392 284,392 Q242,392 208,356 Q184,332 170,282"/> 
            <glyph glyph-name="c" unicode="&#x63;" horiz-adv-x="382" d=" M322,110 L340,101 Q304,49 253,18.5 Q202,-12 152,-12 Q100,-12 60,30 Q26,67 26,136 Q26,251 110,348 Q194,445 293,445 Q330,445 356,422.5 Q382,400 382,368 Q382,342 366,322 Q350,302 330,302 Q316,302 305.5,312 Q295,322 295,335 Q295,352 311,370 Q326,386 326,394 Q326,405 314.5,413.5 Q303,422 289,422 Q222,422 163.5,332 Q105,242 105,141 Q105,93 130,62.5 Q155,32 195,32 Q266,32 322,110"/> 
            <glyph glyph-name="d" unicode="&#x64;" horiz-adv-x="515" d=" M284,97 L291,128 Q244,62 206,30 Q155,-13 106,-13 Q67,-13 42.5,21.5 Q18,56 18,111 Q18,185 62,263.5 Q106,342 174,393.5 Q242,445 305,445 Q343,445 374,414 L424,592 Q429,609 429,614 Q429,623 420.5,629.5 Q412,636 401,636 Q398,636 382,634 L370,633 L376,652 Q446,657 515,671 L341,85 Q335,64 335,51 Q335,39 352,39 Q383,39 431,101 L446,90 Q367,-16 305,-16 Q289,-16 279,-4 Q269,8 269,27 Q269,42 284,97 M296,418 Q233,418 170,316 Q104,208 104,120 Q104,86 116.5,66 Q129,46 151,46 Q174,46 211.5,79 Q249,112 276,157 Q306,205 328,267 Q350,329 350,363 Q350,389 336,403.5 Q322,418 296,418"/> 
            <glyph glyph-name="e" unicode="&#x65;" horiz-adv-x="392" d=" M329,105 L348,91 Q291,35 247,11 Q203,-13 157,-13 Q98,-13 61.5,28.5 Q25,70 25,137 Q25,210 65.5,282 Q106,354 170,400 Q234,446 299,446 Q339,446 365.5,425 Q392,404 392,373 Q392,331 361.5,291 Q331,251 279,227 Q215,197 109,193 Q106,163 106,141 Q106,95 132,66 Q158,37 198,37 Q264,37 329,105 M115,218 Q130,219 156,222 Q237,236 285,291 Q322,334 322,376 Q322,393 310,405.5 Q298,418 282,418 Q236,418 188.5,361.5 Q141,305 115,218"/> 
            <glyph glyph-name="f" unicode="&#x66;" horiz-adv-x="441" d=" M212,405 L140,132 Q103,-7 41,-87.5 Q-21,-168 -92,-168 Q-120,-168 -137.5,-154 Q-155,-140 -155,-118 Q-155,-102 -142.5,-90 Q-130,-78 -114,-78 Q-101,-78 -92.5,-85.5 Q-84,-93 -84,-104 Q-84,-127 -107,-135 Q-105,-149 -88,-149 Q-62,-149 -38,-131 Q-14,-113 2,-80 Q19,-48 30.5,-12 Q42,24 68,132 L141,405 L57,405 L66,436 L94,436 Q117,436 133,448.5 Q149,461 162,492 Q246,676 367,676 Q399,676 420,660.5 Q441,645 441,621 Q441,604 429.5,591.5 Q418,579 403,579 Q390,579 380,588 Q370,597 370,608 Q370,618 383,636 Q386,639 386,643 Q386,654 364,654 Q326,654 292.5,612 Q259,570 238,496 L220,436 L284,436 L275,405"/> 
            <glyph glyph-name="g" unicode="&#x67;" horiz-adv-x="458" d=" M458,410 L443,355 L377,355 Q385,327 385,311 Q385,246 332.5,200 Q280,154 207,154 L203,154 Q136,132 136,103 Q136,93 151.5,87 Q167,81 214,70 Q268,59 288,51.5 Q308,44 327,28 Q362,1 362,-41 Q362,-100 304,-137.5 Q246,-175 156,-175 Q77,-175 32,-151 Q10,-139 -3.5,-118.5 Q-17,-98 -17,-78 Q-17,-52 3,-29.5 Q23,-7 87,38 Q67,57 67,77 Q67,99 85.5,118 Q104,137 150,161 Q60,192 60,275 Q60,345 127,394 Q186,437 251,437 Q292,437 339,410 M249,406 Q208,406 175,359 Q142,312 142,253 Q142,219 158,199 Q174,179 200,179 Q236,179 262,211 Q279,232 292,271 Q305,310 305,340 Q305,406 249,406 M110,23 Q106,21 105,21 Q45,-20 45,-71 Q45,-104 79.5,-125 Q114,-146 168,-146 Q224,-146 262.5,-123.5 Q301,-101 301,-69 Q301,-39 261,-19 Q233,-5 155,11 Q132,16 110,23"/> 
            <glyph glyph-name="h" unicode="&#x68;" horiz-adv-x="446" d=" M289,670 L159,234 Q214,308 232,330 Q250,352 277,377 Q341,437 385,437 Q410,437 425,421.5 Q440,406 440,381 Q440,354 425,305 L358,70 Q353,54 353,48 Q353,42 357.5,37 Q362,32 367,32 Q377,32 395.5,48.5 Q414,65 431,89 L446,82 Q410,38 394,23 Q352,-17 318,-17 Q301,-17 290,-5 Q279,7 279,25 Q279,43 287,70 L356,310 Q366,344 366,357 Q366,368 359.5,375.5 Q353,383 344,383 Q298,383 216,276 Q171,219 151,177.5 Q131,136 105,48 L91,0 L18,0 L185,561 Q198,608 198,616 Q198,624 191,630 Q184,636 175,636 Q172,636 158,634 L147,633 L153,652 Q226,660 289,670"/> 
            <glyph glyph-name="i" unicode="&#x69;" horiz-adv-x="261" d=" M196,104 L203,83 Q123,-15 76,-15 Q59,-15 46.5,-3.5 Q34,8 34,23 Q34,37 40,58 L122,342 Q130,371 130,385 Q130,408 103,408 Q92,408 71,404 L76,423 Q145,428 223,448 L114,66 Q111,57 111,52 Q111,47 115.5,42.5 Q120,38 126,38 Q137,38 157.5,57 Q178,76 196,104 M211,617 Q231,617 246,601.5 Q261,586 261,566 Q261,545 246,530 Q231,515 210,515 Q189,515 174,530 Q159,545 159,566 Q159,587 174,602 Q189,617 211,617"/> 
            <glyph glyph-name="j" unicode="&#x6A;" horiz-adv-x="259" d=" M72,401 L77,419 Q148,425 221,440 L106,37 Q78,-63 27.5,-117.5 Q-23,-172 -85,-172 Q-116,-172 -136,-159 Q-156,-146 -156,-126 Q-156,-110 -144.5,-99 Q-133,-88 -116,-88 Q-101,-88 -92,-96 Q-83,-104 -83,-117 Q-83,-142 -109,-142 Q-100,-155 -84,-155 Q-50,-155 -25,-122 Q-11,-104 -3,-85 Q5,-66 21,-12 L124,351 Q130,370 130,378 Q130,404 100,404 Q94,404 72,401 M209,617 Q229,617 244,601.5 Q259,586 259,566 Q259,545 244,530 Q229,515 208,515 Q187,515 172,530 Q157,545 157,566 Q157,587 172,602 Q187,617 209,617"/> 
            <glyph glyph-name="k" unicode="&#x6B;" horiz-adv-x="501" d=" M142,177 L91,0 L23,0 L185,586 Q191,607 191,616 Q191,624 184,630 Q177,636 167,636 Q164,636 150,634 L140,633 L145,652 Q211,659 284,675 L153,215 L286,329 Q341,377 350.5,386.5 Q360,396 360,405 Q360,413 352.5,415.5 Q345,418 319,420 L323,435 L501,435 L497,420 Q418,417 259,275 L322,100 Q344,39 367,39 Q381,39 401.5,63 Q422,87 441,124 L455,116 Q421,54 391,22 Q360,-12 328,-12 Q293,-12 275,40 L207,232"/> 
            <glyph glyph-name="l" unicode="&#x6C;" horiz-adv-x="285" d=" M189,93 L201,80 Q154,25 127.5,5.5 Q101,-14 73,-14 Q55,-14 43,-2 Q31,10 31,28 Q31,37 38,60 L189,588 Q195,609 195,616 Q195,624 188,630 Q181,636 172,636 Q169,636 155,634 L144,633 L150,652 Q211,658 285,672 L110,60 Q108,52 108,48 Q108,35 121,35 Q132,35 144,45 Q156,55 189,93"/> 
            <glyph glyph-name="m" unicode="&#x6D;" horiz-adv-x="698" d=" M225,452 L163,233 Q303,451 394,451 Q417,451 433,433.5 Q449,416 449,391 Q449,365 439,334 L414,244 Q485,352 538.5,401 Q592,450 639,450 Q662,450 677.5,433 Q693,416 693,390 Q693,360 679,312 L612,79 Q608,67 608,58 Q608,53 611.5,49 Q615,45 619,45 Q645,45 688,102 L698,92 Q632,-5 571,-5 Q553,-5 541.5,7 Q530,19 530,37 Q530,47 535,66 L613,334 Q618,357 618,364 Q618,376 610.5,384.5 Q603,393 592,393 Q569,393 541,368 Q513,343 465,281 Q425,228 408.5,197 Q392,166 377,115 L343,0 L270,0 L366,334 Q371,351 371,365 Q371,377 364,385 Q357,393 347,393 Q305,393 224,289 Q150,192 128,113 L95,0 L23,0 L129,368 Q135,389 135,397 Q135,405 128,411 Q121,417 112,417 Q109,417 95,415 L85,413 L90,433 Q161,440 225,452"/> 
            <glyph glyph-name="n" unicode="&#x6E;" horiz-adv-x="448" d=" M227,447 L161,236 Q238,347 290.5,394.5 Q343,442 388,442 Q413,442 427.5,425 Q442,408 442,379 Q442,352 434,322 L362,72 Q358,60 358,50 Q358,45 362,40.5 Q366,36 371,36 Q394,36 439,94 L448,84 Q377,-11 319,-11 Q301,-11 289,0.5 Q277,12 277,29 Q277,43 283,59 L361,311 Q369,337 369,357 Q369,369 361.5,377.5 Q354,386 344,386 Q303,386 219,281 Q148,192 126,115 L93,0 L20,0 L127,355 Q137,390 137,397 Q137,405 130,411 Q123,417 113,417 Q110,417 96,415 L85,413 L91,433 Q160,437 227,447"/> 
            <glyph glyph-name="o" unicode="&#x6F;" horiz-adv-x="421" d=" M288,446 Q346,446 383.5,400.5 Q421,355 421,285 Q421,222 392.5,161.5 Q364,101 314,58 Q236,-11 162,-11 Q102,-11 65.5,33.5 Q29,78 29,150 Q29,261 110,353.5 Q191,446 288,446 M278,421 Q218,421 171,346 Q140,298 120.5,232 Q101,166 101,110 Q101,66 120,40 Q139,14 171,14 Q234,14 281,100 Q309,151 327,213.5 Q345,276 345,325 Q345,367 326,394 Q307,421 278,421"/> 
            <glyph glyph-name="p" unicode="&#x70;" horiz-adv-x="422" d=" M95,7 L64,-103 Q58,-122 58,-129 Q58,-136 66,-142.5 Q74,-149 84,-149 L132,-149 L127,-167 L-85,-167 L-80,-149 L-54,-149 Q-30,-149 -20.5,-134.5 Q-11,-120 8,-56 L123,345 Q130,369 130,379 Q130,408 106,408 Q98,408 78,403 L83,421 Q139,429 221,443 L192,345 Q230,397 261,419 Q292,441 327,441 Q370,441 396,405 Q422,369 422,310 Q422,234 383,158.5 Q344,83 283,35.5 Q222,-12 161,-12 Q129,-12 95,7 M157,223 L105,41 Q128,11 163,11 Q226,11 284.5,108.5 Q343,206 343,312 Q343,347 329.5,370 Q316,393 294,393 Q254,393 214,345 Q180,302 157,223"/> 
            <glyph glyph-name="q" unicode="&#x71;" horiz-adv-x="451" d=" M219,-103 L293,153 Q192,-8 98,-8 Q63,-8 41,26.5 Q19,61 19,116 Q19,217 98,326 Q140,384 188.5,416.5 Q237,449 281,449 Q342,449 359,384 L376,442 L451,450 L293,-103 Q287,-121 287,-129 Q287,-136 295,-142.5 Q303,-149 312,-149 L342,-149 L337,-167 L122,-167 L128,-149 L172,-149 Q191,-149 201,-139 Q211,-129 219,-103 M286,426 Q239,426 180,344 Q146,298 120.5,230.5 Q95,163 95,121 Q95,50 144,50 Q176,50 213.5,83 Q251,116 283,173 Q308,217 326.5,272 Q345,327 345,357 Q345,385 327.5,405.5 Q310,426 286,426"/> 
            <glyph glyph-name="r" unicode="&#x72;" horiz-adv-x="367" d=" M222,450 L160,235 Q204,334 249,393 Q294,452 327,452 Q344,452 355.5,436.5 Q367,421 367,398 Q367,372 351,350.5 Q335,329 316,329 Q288,329 285,356 Q282,371 277,371 Q271,371 249.5,341 Q228,311 212,281 Q133,132 100,0 L23,0 L125,355 Q135,392 135,397 Q135,405 128,411 Q121,417 113,417 Q109,417 97,415 Q95,415 73,411 L79,432 Q159,440 222,450"/> 
            <glyph glyph-name="s" unicode="&#x73;" horiz-adv-x="332" d=" M332,442 L307,299 L291,299 Q292,308 292,319 Q292,362 268,390.5 Q244,419 209,419 Q184,419 167.5,402 Q151,385 151,359 Q151,338 162.5,317 Q174,296 208,256 Q249,207 264,178 Q279,149 279,117 Q279,63 239.5,25 Q200,-13 144,-13 Q116,-13 63,4 Q54,8 43,8 Q26,8 15,-12 L-4,-12 L24,140 L40,140 Q41,82 66,46.5 Q91,11 131,11 Q163,11 187,35.5 Q211,60 211,93 Q211,135 155,201 Q115,248 102,274.5 Q89,301 89,334 Q89,380 121.5,413 Q154,446 200,446 Q236,446 270,426 Q282,420 289,420 Q303,420 318,442"/> 
            <glyph glyph-name="t" unicode="&#x74;" horiz-adv-x="286" d=" M212,405 L124,95 Q114,56 114,50 Q114,44 119,39.5 Q124,35 130,35 Q155,35 205,103 L216,90 Q146,-13 90,-13 Q68,-13 54.5,0.5 Q41,14 41,36 Q41,60 53,103 L140,405 L71,405 L79,436 Q124,445 156.5,469 Q189,493 230,546 L253,546 L221,436 L286,436 L277,405"/> 
            <glyph glyph-name="u" unicode="&#x75;" horiz-adv-x="467" d=" M467,433 L372,105 Q369,90 366,81 Q361,59 361,58 Q359,50 359,48 Q359,44 362.5,40 Q366,36 371,36 Q392,36 435,88 L444,75 Q414,34 379.5,10.5 Q345,-13 317,-13 Q301,-13 290.5,-2.5 Q280,8 280,23 Q280,40 288,69 L326,200 Q256,93 206,44 Q145,-14 101,-14 Q77,-14 63,4.5 Q49,23 49,55 Q49,75 53,88 L130,355 Q133,367 133,375 Q133,381 128,386 Q123,391 117,391 Q106,391 96.5,383 Q87,375 63,348 L49,331 L38,342 Q86,401 113,422 Q140,443 169,443 Q186,443 197.5,432 Q209,421 209,404 Q209,388 203,366 L130,111 Q123,87 123,73 Q123,44 154,44 Q196,44 269,145 Q314,207 331,241.5 Q348,276 369,349 L393,433"/> 
            <glyph glyph-name="v" unicode="&#x76;" horiz-adv-x="362" d=" M21,398 L26,416 Q85,425 148,444 Q186,304 186,143 Q186,111 185,85 Q242,158 276.5,226 Q311,294 311,334 Q311,345 307,350.5 Q303,356 289,365 Q267,380 267,403 Q267,419 280,430.5 Q293,442 310,442 Q332,442 347,424.5 Q362,407 362,381 Q362,329 309,232 Q276,170 251.5,135 Q227,100 150,5 L134,-16 L113,-16 Q118,25 118,65 Q118,264 91,355 Q83,382 74.5,392.5 Q66,403 53,403 Q48,403 21,398"/> 
            <glyph glyph-name="w" unicode="&#x77;" horiz-adv-x="594" d=" M312,315 L131,-13 L112,-13 Q113,15 113,50 Q113,260 95,353 Q89,382 81.5,392 Q74,402 59,402 Q54,402 35,399 L40,417 Q101,423 144,440 Q177,374 182,127 L357,440 L372,440 L401,82 Q549,271 549,343 Q549,357 529,368 Q503,384 503,404 Q503,420 515.5,431 Q528,442 547,442 Q566,442 580,427 Q594,412 594,391 Q594,317 486,158 Q443,93 357,-13 L339,-13"/> 
            <glyph glyph-name="x" unicode="&#x78;" horiz-adv-x="461" d=" M216,191 L140,79 Q78,-11 27,-11 Q7,-11 -5.5,0 Q-18,11 -18,30 Q-18,45 -8,55.5 Q2,66 16,66 Q27,66 41,55 Q57,40 64,40 Q89,40 146,126 L208,219 Q174,328 148,368 Q122,408 87,408 Q70,408 44,398 L49,415 L176,444 Q197,432 212,403 Q227,374 255,287 Q324,380 342,401 Q386,446 421,446 Q439,446 450,434.5 Q461,423 461,404 Q461,388 452,378 Q443,368 429,368 Q422,368 404,373 Q388,379 379,379 Q357,379 333,355 Q309,331 264,263 L313,106 Q332,45 350,45 Q372,45 415,112 L429,96 Q390,35 365,11 Q340,-13 316,-13 Q275,-13 253,61"/> 
            <glyph glyph-name="y" unicode="&#x79;" horiz-adv-x="416" d=" M189,386 L206,70 Q279,158 328,236 Q377,314 377,342 Q377,350 374,353 Q371,356 354,363 Q342,367 334,380 Q326,393 326,407 Q326,425 337,436 Q348,447 366,447 Q388,447 402,428.5 Q416,410 416,382 Q416,300 233,68 Q47,-167 -23,-167 Q-39,-167 -50.5,-156 Q-62,-145 -62,-130 Q-62,-114 -47,-99 Q-32,-84 -16,-84 Q-5,-84 4.5,-90.5 Q14,-97 15,-107 Q16,-116 21,-116 Q48,-116 143,-6 L123,294 Q119,358 105,382 Q91,406 58,406 Q48,406 29,402 L33,417 L168,449 Q185,428 189,386"/> 
            <glyph glyph-name="z" unicode="&#x7A;" horiz-adv-x="399" d=" M69,66 L220,66 Q256,66 275,78.5 Q294,91 307,125 L330,125 L285,0 L-6,0 L0,19 L309,377 L158,377 Q123,377 105.5,365.5 Q88,354 75,322 L55,322 L110,444 L399,444"/> 
            <glyph glyph-name="{" unicode="&#x7B;" horiz-adv-x="422" d=" M412,634 L373,634 Q329,635 314,623 Q299,611 287,567 L232,373 Q215,313 197.5,289 Q180,265 149,260 Q178,251 178,213 Q178,185 163,135 L106,-67 Q97,-95 97,-108 Q97,-124 108,-129 Q119,-134 153,-134 L192,-134 L183,-167 L116,-167 Q64,-167 47,-162 Q21,-154 21,-124 Q21,-111 37,-56 L94,143 Q106,188 106,206 Q106,238 82,260 Q113,278 128.5,299.5 Q144,321 157,364 L212,556 Q225,604 233,620 Q241,636 257,649 Q270,660 289,663.5 Q308,667 355,667 L422,667"/> 
            <glyph glyph-name="|" unicode="&#x7C;" horiz-adv-x="311" d=" M256,667 L311,667 L311,-167 L256,-167"/> 
            <glyph glyph-name="}" unicode="&#x7D;" horiz-adv-x="373" d=" M202,634 L212,667 L279,667 Q340,667 354,660 Q373,649 373,623 Q373,607 358,556 L304,366 Q294,334 294,312 Q294,284 320,262 Q288,242 270.5,216.5 Q253,191 240,145 L184,-52 Q170,-101 162,-117 Q154,-133 139,-145 Q123,-157 106,-160 Q89,-163 41,-163 L-26,-163 L-16,-130 L23,-130 Q69,-130 82,-119.5 Q95,-109 108,-63 L166,137 Q197,249 252,262 Q219,266 219,302 Q219,324 234,375 L289,567 Q298,601 298,609 Q298,623 286,628.5 Q274,634 241,634"/> 
            <glyph glyph-name="~" unicode="&#x7E;" horiz-adv-x="577" d=" M563,734 L577,725 Q553,682 515.5,655 Q478,628 441,628 Q421,628 380,642 Q293,671 263,671 Q239,671 221.5,661 Q204,651 181,623 Q177,619 173,613 L158,622 Q216,720 296,720 Q323,720 386,698 Q439,679 465,679 Q518,679 563,734"/> 
            <glyph glyph-name="Ċ" unicode="&#x10A;" horiz-adv-x="673" d=" M560,161 L573,153 Q519,71 452,32 Q384,-9 317,-9 Q207,-9 135,67.5 Q63,144 63,260 Q63,348 110.5,435.5 Q158,523 241,588 Q345,672 467,672 Q523,672 585,654 Q604,648 614,648 Q640,648 657,669 L673,669 L623,461 L606,461 Q611,489 611,508 Q611,568 574,604.5 Q537,641 476,641 Q431,641 382,617 Q333,593 293,550 Q238,493 202.5,404.5 Q167,316 167,235 Q167,147 220,90.5 Q273,34 356,34 Q467,34 560,161 M464,836 Q510,836 526.5,819 Q543,802 543,780 Q543,757 526,740 Q509,723 486,723 Q463,723 446.5,740 Q430,757 430,780 Q430,803 464,836"/> 
            <glyph glyph-name="ċ" unicode="&#x10B;" horiz-adv-x="382" d=" M322,110 L340,101 Q304,49 253,18.5 Q202,-12 152,-12 Q100,-12 60,30 Q26,67 26,136 Q26,251 110,348 Q194,445 293,445 Q330,445 356,422.5 Q382,400 382,368 Q382,342 366,322 Q350,302 330,302 Q316,302 305.5,312 Q295,322 295,335 Q295,352 311,370 Q326,386 326,394 Q326,405 314.5,413.5 Q303,422 289,422 Q222,422 163.5,332 Q105,242 105,141 Q105,93 130,62.5 Q155,32 195,32 Q266,32 322,110 M292,611 Q332,611 346.5,596 Q361,581 361,561 Q361,541 346.5,526.5 Q332,512 312,512 Q291,512 276.5,526.5 Q262,541 262,562 Q262,582 292,611"/> 
            <glyph glyph-name="Č" unicode="&#x10C;" horiz-adv-x="673" d=" M560,161 L573,153 Q519,71 452,32 Q384,-9 317,-9 Q207,-9 135,67.5 Q63,144 63,260 Q63,348 110.5,435.5 Q158,523 241,588 Q345,672 467,672 Q523,672 585,654 Q604,648 614,648 Q640,648 657,669 L673,669 L623,461 L606,461 Q611,489 611,508 Q611,568 574,604.5 Q537,641 476,641 Q431,641 382,617 Q333,593 293,550 Q238,493 202.5,404.5 Q167,316 167,235 Q167,147 220,90.5 Q273,34 356,34 Q467,34 560,161 M493,769 L649,854 L518,725 L441,725 L398,854"/> 
            <glyph glyph-name="č" unicode="&#x10D;" horiz-adv-x="440" d=" M322,110 L340,101 Q304,49 253,18.5 Q202,-12 152,-12 Q100,-12 60,30 Q26,67 26,136 Q26,251 110,348 Q194,445 293,445 Q330,445 356,422.5 Q382,400 382,368 Q382,342 366,322 Q350,302 330,302 Q316,302 305.5,312 Q295,322 295,335 Q295,352 311,370 Q326,386 326,394 Q326,405 314.5,413.5 Q303,422 289,422 Q222,422 163.5,332 Q105,242 105,141 Q105,93 130,62.5 Q155,32 195,32 Q266,32 322,110 M315,561 L440,674 L341,513 L269,513 L239,674"/> 
            <glyph glyph-name="Ď" unicode="&#x10E;" horiz-adv-x="654" d=" M-20,0 L-15,18 Q34,19 54.5,35.5 Q75,52 90,105 L223,569 Q230,595 230,609 Q230,635 205,644 Q190,649 156,649 L161,667 L380,667 Q456,667 501.5,651.5 Q547,636 583,599 Q654,525 654,402 Q654,311 610,224 Q566,137 491,81 Q383,0 232,0 M337,630 L184,95 Q179,78 179,66 Q179,38 222,38 Q375,38 457,133 Q500,183 526,261.5 Q552,340 552,420 Q552,517 503,575 Q454,633 371,633 Q361,633 337,630 M430,769 L586,854 L455,725 L378,725 L335,854"/> 
            <glyph glyph-name="ď" unicode="&#x10F;" horiz-adv-x="639" d=" M284,97 L291,128 Q244,62 206,30 Q155,-13 106,-13 Q67,-13 42.5,21.5 Q18,56 18,111 Q18,185 62,263.5 Q106,342 174,393.5 Q242,445 305,445 Q343,445 374,414 L424,592 Q429,609 429,614 Q429,623 420.5,629.5 Q412,636 401,636 Q398,636 382,634 L370,633 L376,652 Q446,657 515,671 L341,85 Q335,64 335,51 Q335,39 352,39 Q383,39 431,101 L446,90 Q367,-16 305,-16 Q289,-16 279,-4 Q269,8 269,27 Q269,42 284,97 M296,418 Q233,418 170,316 Q104,208 104,120 Q104,86 116.5,66 Q129,46 151,46 Q174,46 211.5,79 Q249,112 276,157 Q306,205 328,267 Q350,329 350,363 Q350,389 336,403.5 Q322,418 296,418 M538,508 L522,527 Q585,556 585,587 Q585,597 569,613 Q558,622 558,636 Q558,652 570,664.5 Q582,677 598,677 Q614,677 626.5,663 Q639,649 639,630 Q639,596 612,563 Q585,530 538,508"/> 
            <glyph glyph-name="Đ" unicode="&#x110;" horiz-adv-x="654" d=" M-20,0 L-15,18 L0,18 Q37,18 56.5,37 Q76,56 90,105 L154,328 L74,328 L84,365 L164,365 L223,569 Q230,595 230,609 Q230,626 215.5,637.5 Q201,649 181,649 L156,649 L161,667 L380,667 Q456,667 501.5,651.5 Q547,636 583,599 Q654,525 654,402 Q654,311 610,224 Q566,137 491,81 Q383,0 232,0 M337,630 L261,365 L395,365 L384,328 L251,328 L184,95 Q179,78 179,66 Q179,38 222,38 Q375,38 457,133 Q500,183 526,261.5 Q552,340 552,420 Q552,517 503,575 Q454,633 371,633 Q361,633 337,630"/> 
            <glyph glyph-name="đ" unicode="&#x111;" horiz-adv-x="541" d=" M403,518 L290,518 L299,549 L412,549 L424,592 Q429,609 429,614 Q429,623 420.5,629.5 Q412,636 401,636 Q398,636 382,634 L370,633 L376,652 Q446,657 515,671 L479,549 L541,549 L532,518 L470,518 L341,85 Q335,64 335,51 Q335,39 352,39 Q383,39 431,101 L446,90 Q367,-16 305,-16 Q289,-16 279,-4 Q269,8 269,27 Q269,42 284,97 L291,128 Q244,62 206,30 Q155,-13 106,-13 Q67,-13 42.5,21.5 Q18,56 18,111 Q18,224 113,334.5 Q208,445 305,445 Q343,445 374,414 M296,418 Q233,418 170,316 Q104,208 104,120 Q104,86 116.5,66 Q129,46 151,46 Q174,46 211.5,79 Q249,112 276,157 Q306,205 328,267 Q350,329 350,363 Q350,389 336,403.5 Q322,418 296,418"/> 
            <glyph glyph-name="Ē" unicode="&#x112;" horiz-adv-x="634" d=" M250,333 L181,92 Q175,73 175,65 Q175,47 192,42 Q209,37 272,37 Q376,37 451,90 Q496,122 529,189 L545,189 L480,0 L-11,0 L-6,18 Q38,20 57.5,37 Q77,54 90,105 L223,566 Q230,594 230,607 Q230,635 205,644 Q188,649 152,649 L157,667 L634,667 L588,507 L571,507 Q577,529 577,546 Q577,592 545.5,611 Q514,630 438,630 L335,630 L260,369 L326,369 Q366,369 386.5,375.5 Q407,382 425,400 Q444,419 460,469 L478,469 L408,227 L391,227 Q402,265 402,286 Q402,311 384.5,322 Q367,333 327,333 M599,806 L583,751 L288,751 L304,806"/> 
            <glyph glyph-name="ē" unicode="&#x113;" horiz-adv-x="423" d=" M329,105 L348,91 Q291,35 247,11 Q203,-13 157,-13 Q98,-13 61.5,28.5 Q25,70 25,137 Q25,210 65.5,282 Q106,354 170,400 Q234,446 299,446 Q339,446 365.5,425 Q392,404 392,373 Q392,331 361.5,291 Q331,251 279,227 Q215,197 109,193 Q106,163 106,141 Q106,95 132,66 Q158,37 198,37 Q264,37 329,105 M115,218 Q130,219 156,222 Q237,236 285,291 Q322,334 322,376 Q322,393 310,405.5 Q298,418 282,418 Q236,418 188.5,361.5 Q141,305 115,218 M423,583 L409,534 L176,534 L190,583"/> 
            <glyph glyph-name="Ĕ" unicode="&#x114;" horiz-adv-x="634" d=" M250,333 L181,92 Q175,73 175,65 Q175,47 192,42 Q209,37 272,37 Q376,37 451,90 Q496,122 529,189 L545,189 L480,0 L-11,0 L-6,18 Q38,20 57.5,37 Q77,54 90,105 L223,566 Q230,594 230,607 Q230,635 205,644 Q188,649 152,649 L157,667 L634,667 L588,507 L571,507 Q577,529 577,546 Q577,592 545.5,611 Q514,630 438,630 L335,630 L260,369 L326,369 Q366,369 386.5,375.5 Q407,382 425,400 Q444,419 460,469 L478,469 L408,227 L391,227 Q402,265 402,286 Q402,311 384.5,322 Q367,333 327,333 M320,854 L339,854 Q363,786 446,786 Q534,786 584,854 L605,854 Q586,804 565,779 Q523,726 442,726 Q380,726 351,756.5 Q322,787 320,854"/> 
            <glyph glyph-name="ĕ" unicode="&#x115;" horiz-adv-x="435" d=" M329,105 L348,91 Q291,35 247,11 Q203,-13 157,-13 Q98,-13 61.5,28.5 Q25,70 25,137 Q25,210 65.5,282 Q106,354 170,400 Q234,446 299,446 Q339,446 365.5,425 Q392,404 392,373 Q392,331 361.5,291 Q331,251 279,227 Q215,197 109,193 Q106,163 106,141 Q106,95 132,66 Q158,37 198,37 Q264,37 329,105 M115,218 Q130,219 156,222 Q237,236 285,291 Q322,334 322,376 Q322,393 310,405.5 Q298,418 282,418 Q236,418 188.5,361.5 Q141,305 115,218 M205,655 L222,655 Q227,609 245.5,590 Q264,571 304,571 Q344,571 369,589.5 Q394,608 418,655 L435,655 Q417,581 384.5,547.5 Q352,514 298,514 Q204,514 204,624 Q204,640 205,655"/> 
            <glyph glyph-name="Ė" unicode="&#x116;" horiz-adv-x="634" d=" M250,333 L181,92 Q175,73 175,65 Q175,47 192,42 Q209,37 272,37 Q376,37 451,90 Q496,122 529,189 L545,189 L480,0 L-11,0 L-6,18 Q38,20 57.5,37 Q77,54 90,105 L223,566 Q230,594 230,607 Q230,635 205,644 Q188,649 152,649 L157,667 L634,667 L588,507 L571,507 Q577,529 577,546 Q577,592 545.5,611 Q514,630 438,630 L335,630 L260,369 L326,369 Q366,369 386.5,375.5 Q407,382 425,400 Q444,419 460,469 L478,469 L408,227 L391,227 Q402,265 402,286 Q402,311 384.5,322 Q367,333 327,333 M450,836 Q472,836 489,819 Q506,802 506,780 Q506,757 489,740 Q472,723 449,723 Q426,723 409.5,740 Q393,757 393,780 Q393,803 410,819.5 Q427,836 450,836"/> 
            <glyph glyph-name="ė" unicode="&#x117;" horiz-adv-x="392" d=" M329,105 L348,91 Q291,35 247,11 Q203,-13 157,-13 Q98,-13 61.5,28.5 Q25,70 25,137 Q25,210 65.5,282 Q106,354 170,400 Q234,446 299,446 Q339,446 365.5,425 Q392,404 392,373 Q392,331 361.5,291 Q331,251 279,227 Q215,197 109,193 Q106,163 106,141 Q106,95 132,66 Q158,37 198,37 Q264,37 329,105 M115,218 Q130,219 156,222 Q237,236 285,291 Q322,334 322,376 Q322,393 310,405.5 Q298,418 282,418 Q236,418 188.5,361.5 Q141,305 115,218 M295,611 Q335,611 349.5,596 Q364,581 364,561 Q364,541 349.5,526.5 Q335,512 315,512 Q294,512 279.5,526.5 Q265,541 265,562 Q265,582 295,611"/> 
            <glyph glyph-name="Ę" unicode="&#x118;" horiz-adv-x="634" d=" M545,189 L480,0 Q437,-8 414,-22 Q370,-48 370,-83 Q370,-98 384,-107 Q398,-116 422,-116 Q447,-116 487,-104 L481,-124 Q413,-150 373,-150 Q339,-150 318.5,-133 Q298,-116 298,-90 Q298,-56 326.5,-36.5 Q355,-17 426,0 L-11,0 L-6,18 Q38,20 57.5,37 Q77,54 90,105 L223,566 Q230,594 230,607 Q230,635 205,644 Q188,649 152,649 L157,667 L634,667 L588,507 L571,507 Q577,529 577,546 Q577,592 545.5,611 Q514,630 438,630 L335,630 L260,369 L326,369 Q366,369 386.5,375.5 Q407,382 425,400 Q444,419 460,469 L478,469 L408,227 L391,227 Q402,265 402,286 Q402,311 384.5,322 Q367,333 327,333 L250,333 L181,92 Q175,73 175,65 Q175,47 192,42 Q209,37 272,37 Q376,37 451,90 Q496,122 529,189"/> 
            <glyph glyph-name="ę" unicode="&#x119;" horiz-adv-x="392" d=" M329,105 L348,91 Q340,84 325,69 Q300,46 263,20 Q251,10 244,6 Q239,1 233,-2 Q199,-32 188,-46 Q177,-60 177,-72 Q177,-86 189,-94 Q201,-102 220,-102 Q245,-102 294,-86 L288,-105 Q222,-138 180,-138 Q152,-138 134,-123.5 Q116,-109 116,-86 Q116,-65 129.5,-50 Q143,-35 182,-13 L157,-13 Q98,-13 61.5,28.5 Q25,70 25,137 Q25,210 65.5,282 Q106,354 170,400 Q234,446 299,446 Q339,446 365.5,425 Q392,404 392,373 Q392,331 361.5,291 Q331,251 279,227 Q215,197 109,193 Q106,163 106,141 Q106,95 132,66 Q158,37 198,37 Q264,37 329,105 M115,218 Q130,219 156,222 Q237,236 285,291 Q322,334 322,376 Q322,393 310,405.5 Q298,418 282,418 Q236,418 188.5,361.5 Q141,305 115,218"/> 
            <glyph glyph-name="Ě" unicode="&#x11A;" horiz-adv-x="634" d=" M250,333 L181,92 Q175,73 175,65 Q175,47 192,42 Q209,37 272,37 Q376,37 451,90 Q496,122 529,189 L545,189 L480,0 L-11,0 L-6,18 Q38,20 57.5,37 Q77,54 90,105 L223,566 Q230,594 230,607 Q230,635 205,644 Q188,649 152,649 L157,667 L634,667 L588,507 L571,507 Q577,529 577,546 Q577,592 545.5,611 Q514,630 438,630 L335,630 L260,369 L326,369 Q366,369 386.5,375.5 Q407,382 425,400 Q444,419 460,469 L478,469 L408,227 L391,227 Q402,265 402,286 Q402,311 384.5,322 Q367,333 327,333 M452,769 L608,854 L477,725 L400,725 L357,854"/> 
            <glyph glyph-name="ě" unicode="&#x11B;" horiz-adv-x="432" d=" M329,105 L348,91 Q291,35 247,11 Q203,-13 157,-13 Q98,-13 61.5,28.5 Q25,70 25,137 Q25,210 65.5,282 Q106,354 170,400 Q234,446 299,446 Q339,446 365.5,425 Q392,404 392,373 Q392,331 361.5,291 Q331,251 279,227 Q215,197 109,193 Q106,163 106,141 Q106,95 132,66 Q158,37 198,37 Q264,37 329,105 M115,218 Q130,219 156,222 Q237,236 285,291 Q322,334 322,376 Q322,393 310,405.5 Q298,418 282,418 Q236,418 188.5,361.5 Q141,305 115,218 M307,561 L432,674 L333,513 L261,513 L231,674"/> 
            <glyph glyph-name="Ĝ" unicode="&#x11C;" horiz-adv-x="657" d=" M657,667 L610,463 L592,463 Q600,504 600,517 Q600,570 559.5,603.5 Q519,637 454,637 Q318,637 234,486 Q202,428 182,351.5 Q162,275 162,210 Q162,122 205,74 Q225,52 255.5,38.5 Q286,25 317,25 Q360,25 407,46 L461,237 Q468,257 468,278 Q468,305 443,314 Q426,319 390,319 L381,319 L386,337 L655,337 L650,319 Q608,317 588,299 Q568,281 555,231 L498,33 Q393,-11 316,-11 Q202,-11 132,60.5 Q62,132 62,248 Q62,331 94,408.5 Q126,486 179,543.5 Q232,601 304,635.5 Q376,670 453,670 Q513,670 579,643 Q592,638 598,638 Q621,638 641,667 M481,797 L326,712 L456,841 L533,841 L576,712"/> 
            <glyph glyph-name="ĝ" unicode="&#x11D;" horiz-adv-x="458" d=" M458,410 L443,355 L377,355 Q385,327 385,311 Q385,246 332.5,200 Q280,154 207,154 L203,154 Q136,132 136,103 Q136,93 151.5,87 Q167,81 214,70 Q268,59 288,51.5 Q308,44 327,28 Q362,1 362,-41 Q362,-100 304,-137.5 Q246,-175 156,-175 Q77,-175 32,-151 Q10,-139 -3.5,-118.5 Q-17,-98 -17,-78 Q-17,-52 3,-29.5 Q23,-7 87,38 Q67,57 67,77 Q67,99 85.5,118 Q104,137 150,161 Q60,192 60,275 Q60,345 127,394 Q186,437 251,437 Q292,437 339,410 M249,406 Q208,406 175,359 Q142,312 142,253 Q142,219 158,199 Q174,179 200,179 Q236,179 262,211 Q279,232 292,271 Q305,310 305,340 Q305,406 249,406 M110,23 Q106,21 105,21 Q45,-20 45,-71 Q45,-104 79.5,-125 Q114,-146 168,-146 Q224,-146 262.5,-123.5 Q301,-101 301,-69 Q301,-39 261,-19 Q233,-5 155,11 Q132,16 110,23 M291,613 L166,500 L265,660 L337,660 L367,500"/> 
            <glyph glyph-name="Ğ" unicode="&#x11E;" horiz-adv-x="657" d=" M657,667 L610,463 L592,463 Q600,504 600,517 Q600,570 559.5,603.5 Q519,637 454,637 Q318,637 234,486 Q202,428 182,351.5 Q162,275 162,210 Q162,122 205,74 Q225,52 255.5,38.5 Q286,25 317,25 Q360,25 407,46 L461,237 Q468,257 468,278 Q468,305 443,314 Q426,319 390,319 L381,319 L386,337 L655,337 L650,319 Q608,317 588,299 Q568,281 555,231 L498,33 Q393,-11 316,-11 Q202,-11 132,60.5 Q62,132 62,248 Q62,331 94,408.5 Q126,486 179,543.5 Q232,601 304,635.5 Q376,670 453,670 Q513,670 579,643 Q592,638 598,638 Q621,638 641,667 M341,854 L360,854 Q384,786 467,786 Q553,786 605,854 L625,854 Q605,802 586,779 Q542,726 462,726 Q400,726 371.5,756.5 Q343,787 341,854"/> 
            <glyph glyph-name="ğ" unicode="&#x11F;" horiz-adv-x="458" d=" M458,410 L443,355 L377,355 Q385,327 385,311 Q385,246 332.5,200 Q280,154 207,154 L203,154 Q136,132 136,103 Q136,93 151.5,87 Q167,81 214,70 Q268,59 288,51.5 Q308,44 327,28 Q362,1 362,-41 Q362,-100 304,-137.5 Q246,-175 156,-175 Q77,-175 32,-151 Q10,-139 -3.5,-118.5 Q-17,-98 -17,-78 Q-17,-52 3,-29.5 Q23,-7 87,38 Q67,57 67,77 Q67,99 85.5,118 Q104,137 150,161 Q60,192 60,275 Q60,345 127,394 Q186,437 251,437 Q292,437 339,410 M249,406 Q208,406 175,359 Q142,312 142,253 Q142,219 158,199 Q174,179 200,179 Q236,179 262,211 Q279,232 292,271 Q305,310 305,340 Q305,406 249,406 M110,23 Q106,21 105,21 Q45,-20 45,-71 Q45,-104 79.5,-125 Q114,-146 168,-146 Q224,-146 262.5,-123.5 Q301,-101 301,-69 Q301,-39 261,-19 Q233,-5 155,11 Q132,16 110,23 M181,655 L197,655 Q202,609 220.5,590 Q239,571 280,571 Q320,571 345,589.5 Q370,608 394,655 L410,655 Q393,581 360.5,547.5 Q328,514 274,514 Q180,514 180,624 Q180,638 181,655"/> 
            <glyph glyph-name="Ġ" unicode="&#x120;" horiz-adv-x="657" d=" M657,667 L610,463 L592,463 Q600,504 600,517 Q600,570 559.5,603.5 Q519,637 454,637 Q318,637 234,486 Q202,428 182,351.5 Q162,275 162,210 Q162,122 205,74 Q225,52 255.5,38.5 Q286,25 317,25 Q360,25 407,46 L461,237 Q468,257 468,278 Q468,305 443,314 Q426,319 390,319 L381,319 L386,337 L655,337 L650,319 Q608,317 588,299 Q568,281 555,231 L498,33 Q393,-11 316,-11 Q202,-11 132,60.5 Q62,132 62,248 Q62,331 94,408.5 Q126,486 179,543.5 Q232,601 304,635.5 Q376,670 453,670 Q513,670 579,643 Q592,638 598,638 Q621,638 641,667 M470,836 Q492,836 509,819 Q526,802 526,780 Q526,757 509,740 Q492,723 469,723 Q446,723 429.5,740 Q413,757 413,780 Q413,803 430,819.5 Q447,836 470,836"/> 
            <glyph glyph-name="ġ" unicode="&#x121;" horiz-adv-x="458" d=" M458,410 L443,355 L377,355 Q385,327 385,311 Q385,246 332.5,200 Q280,154 207,154 L203,154 Q136,132 136,103 Q136,93 151.5,87 Q167,81 214,70 Q268,59 288,51.5 Q308,44 327,28 Q362,1 362,-41 Q362,-100 304,-137.5 Q246,-175 156,-175 Q77,-175 32,-151 Q10,-139 -3.5,-118.5 Q-17,-98 -17,-78 Q-17,-52 3,-29.5 Q23,-7 87,38 Q67,57 67,77 Q67,99 85.5,118 Q104,137 150,161 Q60,192 60,275 Q60,345 127,394 Q186,437 251,437 Q292,437 339,410 M249,406 Q208,406 175,359 Q142,312 142,253 Q142,219 158,199 Q174,179 200,179 Q236,179 262,211 Q279,232 292,271 Q305,310 305,340 Q305,406 249,406 M110,23 Q106,21 105,21 Q45,-20 45,-71 Q45,-104 79.5,-125 Q114,-146 168,-146 Q224,-146 262.5,-123.5 Q301,-101 301,-69 Q301,-39 261,-19 Q233,-5 155,11 Q132,16 110,23 M257,611 Q297,611 311.5,596 Q326,581 326,561 Q326,541 311.5,526.5 Q297,512 277,512 Q256,512 241.5,526.5 Q227,541 227,562 Q227,582 257,611"/> 
            <glyph glyph-name="Ģ" unicode="&#x122;" horiz-adv-x="657" d=" M657,667 L610,463 L592,463 Q600,504 600,517 Q600,570 559.5,603.5 Q519,637 454,637 Q318,637 234,486 Q202,428 182,351.5 Q162,275 162,210 Q162,122 205,74 Q225,52 255.5,38.5 Q286,25 317,25 Q360,25 407,46 L461,237 Q468,257 468,278 Q468,305 443,314 Q426,319 390,319 L381,319 L386,337 L655,337 L650,319 Q608,317 588,299 Q568,281 555,231 L498,33 Q393,-11 316,-11 Q202,-11 132,60.5 Q62,132 62,248 Q62,331 94,408.5 Q126,486 179,543.5 Q232,601 304,635.5 Q376,670 453,670 Q513,670 579,643 Q592,638 598,638 Q621,638 641,667 M217,-227 L199,-206 Q269,-175 269,-140 Q269,-128 251,-111 Q240,-100 240,-85 Q240,-67 253,-53.5 Q266,-40 283,-40 Q302,-40 315.5,-55.5 Q329,-71 329,-92 Q329,-131 299,-167.5 Q269,-204 217,-227"/> 
            <glyph glyph-name="ģ" unicode="&#x123;" horiz-adv-x="458" d=" M458,410 L443,355 L377,355 Q385,327 385,311 Q385,246 332.5,200 Q280,154 207,154 L203,154 Q136,132 136,103 Q136,93 151.5,87 Q167,81 214,70 Q268,59 288,51.5 Q308,44 327,28 Q362,1 362,-41 Q362,-100 304,-137.5 Q246,-175 156,-175 Q77,-175 32,-151 Q10,-139 -3.5,-118.5 Q-17,-98 -17,-78 Q-17,-52 3,-29.5 Q23,-7 87,38 Q67,57 67,77 Q67,99 85.5,118 Q104,137 150,161 Q60,192 60,275 Q60,345 127,394 Q186,437 251,437 Q292,437 339,410 M249,406 Q208,406 175,359 Q142,312 142,253 Q142,219 158,199 Q174,179 200,179 Q236,179 262,211 Q279,232 292,271 Q305,310 305,340 Q305,406 249,406 M110,23 Q106,21 105,21 Q45,-20 45,-71 Q45,-104 79.5,-125 Q114,-146 168,-146 Q224,-146 262.5,-123.5 Q301,-101 301,-69 Q301,-39 261,-19 Q233,-5 155,11 Q132,16 110,23 M334,670 L350,652 Q287,623 287,592 Q287,582 303,566 Q314,557 314,543 Q314,527 302,514.5 Q290,502 274,502 Q258,502 245.5,516 Q233,530 233,549 Q233,584 260.5,616.5 Q288,649 334,670"/> 
            <glyph glyph-name="Ĥ" unicode="&#x124;" horiz-adv-x="793" d=" M252,332 L185,100 Q178,74 178,59 Q178,32 203,23 Q218,18 248,18 L243,0 L-14,0 L-9,18 Q37,20 57,37 Q77,54 91,105 L223,566 Q230,594 230,608 Q230,635 205,644 Q190,649 159,649 L164,667 L434,667 L429,649 Q375,649 354,632.5 Q333,616 317,561 L263,369 L530,369 L586,566 Q593,587 593,608 Q593,635 568,644 Q553,649 522,649 L528,667 L793,667 L788,649 Q737,649 716.5,632 Q696,615 681,561 L549,100 Q542,74 542,59 Q542,32 567,23 Q582,18 614,18 L608,0 L344,0 L350,18 Q399,19 419.5,36 Q440,53 454,105 L519,332 M525,797 L370,712 L501,841 L577,841 L621,712"/> 
            <glyph glyph-name="Ħ" unicode="&#x126;" horiz-adv-x="793" d=" M204,502 L117,502 L127,535 L214,535 L223,566 Q230,594 230,608 Q230,635 205,644 Q190,649 159,649 L164,667 L434,667 L429,649 Q375,649 354,632.5 Q333,616 318,561 L310,535 L577,535 L586,566 Q593,587 593,608 Q593,635 568,644 Q553,649 522,649 L528,667 L793,667 L788,649 Q737,649 716.5,632 Q696,615 681,561 L674,535 L762,535 L752,502 L664,502 L549,100 Q542,74 542,59 Q542,32 567,23 Q582,18 614,18 L608,0 L344,0 L350,18 Q399,19 419.5,36 Q440,53 454,105 L519,332 L252,332 L185,100 Q178,74 178,59 Q178,32 203,23 Q218,18 248,18 L243,0 L-14,0 L-9,18 Q37,20 57,37 Q77,54 91,105 M300,502 L263,369 L530,369 L568,502"/> 
            <glyph glyph-name="ħ" unicode="&#x127;" horiz-adv-x="446" d=" M172,518 L115,518 L123,549 L181,549 L185,562 Q198,608 198,616 Q198,624 191,630 Q184,636 175,636 Q172,636 158,634 L147,633 L153,652 Q226,660 289,670 L253,549 L375,549 L366,518 L243,518 L159,234 Q213,307 231.5,329 Q250,351 277,377 Q341,437 385,437 Q410,437 425,421.5 Q440,406 440,381 Q440,358 425,305 L358,70 Q353,54 353,48 Q353,42 357.5,37 Q362,32 367,32 Q377,32 395.5,48.5 Q414,65 431,89 L446,82 Q416,45 394,23 Q352,-17 318,-17 Q301,-17 290,-5 Q279,7 279,25 Q279,43 287,70 L356,310 Q366,344 366,357 Q366,368 359.5,375.5 Q353,383 344,383 Q298,383 216,276 Q171,219 151,177.5 Q131,136 105,48 L91,0 L18,0"/> 
            <glyph glyph-name="Ī" unicode="&#x12A;" horiz-adv-x="465" d=" M248,18 L243,0 L-14,0 L-9,18 Q37,20 57,37 Q77,54 91,106 L223,567 Q230,593 230,608 Q230,635 205,644 Q190,649 159,649 L164,667 L434,667 L429,649 Q375,649 354,632.5 Q333,616 317,561 L185,100 Q178,74 178,59 Q178,32 203,23 Q218,18 248,18 M465,806 L449,751 L184,751 L200,806"/> 
            <glyph glyph-name="ī" unicode="&#x12B;" horiz-adv-x="305" d=" M196,104 L203,83 Q123,-15 76,-15 Q59,-15 46.5,-3.5 Q34,8 34,23 Q34,37 40,58 L122,342 Q130,371 130,385 Q130,408 103,408 Q92,408 71,404 L76,423 Q145,428 223,448 L114,66 Q111,57 111,52 Q111,47 115.5,42.5 Q120,38 126,38 Q137,38 157.5,57 Q178,76 196,104 M305,583 L291,534 L91,534 L105,583"/> 
            <glyph glyph-name="ĭ" unicode="&#x12D;" horiz-adv-x="324" d=" M196,104 L203,83 Q123,-15 76,-15 Q59,-15 46.5,-3.5 Q34,8 34,23 Q34,37 40,58 L122,342 Q130,371 130,385 Q130,408 103,408 Q92,408 71,404 L76,423 Q145,428 223,448 L114,66 Q111,57 111,52 Q111,47 115.5,42.5 Q120,38 126,38 Q137,38 157.5,57 Q178,76 196,104 M114,655 L131,655 Q135,611 152,591 Q169,571 203,571 Q236,571 260,590.5 Q284,610 307,655 L324,655 Q290,514 198,514 Q113,514 113,624 Q113,640 114,655"/> 
            <glyph glyph-name="Į" unicode="&#x12E;" horiz-adv-x="434" d=" M164,667 L434,667 L429,649 Q375,649 354,632.5 Q333,616 317,561 L185,100 Q178,74 178,59 Q178,32 203,23 Q218,18 248,18 L243,0 L230,0 Q181,-4 150,-26.5 Q119,-49 119,-81 Q119,-97 132.5,-106.5 Q146,-116 168,-116 Q189,-116 229,-104 L224,-124 Q165,-150 126,-150 Q91,-150 69,-133.5 Q47,-117 47,-91 Q47,-24 169,0 L-14,0 L-9,18 Q37,20 57,37 Q77,54 91,106 L223,567 Q230,593 230,608 Q230,635 205,644 Q190,649 159,649"/> 
            <glyph glyph-name="į" unicode="&#x12F;" horiz-adv-x="261" d=" M71,404 L76,423 Q145,428 223,448 L113,66 Q111,54 111,52 Q111,47 115.5,42.5 Q120,38 125,38 Q136,38 156,56.5 Q176,75 196,104 L202,83 Q184,60 156,31 Q137,12 120,-8 Q111,-20 104,-27 Q78,-57 78,-74 Q78,-103 118,-103 Q143,-103 181,-86 L176,-105 Q108,-139 77,-139 Q52,-139 34.5,-123.5 Q17,-108 17,-86 Q17,-48 78,-15 Q34,-10 34,23 Q34,37 40,58 L121,342 Q130,370 130,385 Q130,408 103,408 Q92,408 71,404 M211,617 Q231,617 246,601.5 Q261,586 261,566 Q261,545 246,530 Q231,515 210,515 Q189,515 174,530 Q159,545 159,566 Q159,587 174,602 Q189,617 211,617"/> 
            <glyph glyph-name="İ" unicode="&#x130;" horiz-adv-x="434" d=" M248,18 L243,0 L-14,0 L-9,18 Q37,20 57,37 Q77,54 91,106 L223,567 Q230,593 230,608 Q230,635 205,644 Q190,649 159,649 L164,667 L434,667 L429,649 Q375,649 354,632.5 Q333,616 317,561 L185,100 Q178,74 178,59 Q178,32 203,23 Q218,18 248,18 M300,836 Q346,836 362.5,819 Q379,802 379,780 Q379,757 362,740 Q345,723 322,723 Q299,723 282.5,740 Q266,757 266,780 Q266,803 300,836"/> 
            <glyph glyph-name="ı" unicode="&#x131;" horiz-adv-x="223" d=" M196,104 L203,83 Q123,-15 76,-15 Q59,-15 46.5,-3.5 Q34,8 34,23 Q34,37 40,58 L122,342 Q130,371 130,385 Q130,408 103,408 Q92,408 71,404 L76,423 Q145,428 223,448 L114,66 Q111,57 111,52 Q111,47 115.5,42.5 Q120,38 126,38 Q137,38 157.5,57 Q178,76 196,104"/> 
            <glyph glyph-name="Ĳ" unicode="&#x132;" horiz-adv-x="814" d=" M248,18 L243,0 L-14,0 L-9,18 Q37,20 57,37 Q77,54 91,106 L223,567 Q230,593 230,608 Q230,635 205,644 Q190,649 159,649 L164,667 L434,667 L429,649 Q375,649 354,632.5 Q333,616 317,561 L185,100 Q178,74 178,59 Q178,32 203,23 Q218,18 248,18 M554,649 L559,667 L814,667 L809,649 Q772,647 753,628 Q734,609 721,561 L615,190 Q588,96 542,50 Q481,-11 412,-11 Q368,-11 338.5,15 Q309,41 309,80 Q309,110 328,131 Q347,152 373,152 Q392,152 405.5,139 Q419,126 419,107 Q419,89 405,75 Q391,61 391,49 Q391,39 399.5,32.5 Q408,26 420,26 Q443,26 463.5,50.5 Q484,75 497,117 L625,567 Q632,587 632,608 Q632,635 607,644 Q594,649 554,649"/> 
            <glyph glyph-name="ĳ" unicode="&#x133;" horiz-adv-x="501" d=" M196,104 L203,83 Q123,-15 76,-15 Q59,-15 46.5,-3.5 Q34,8 34,23 Q34,37 40,58 L122,342 Q130,371 130,385 Q130,408 103,408 Q92,408 71,404 L76,423 Q145,428 223,448 L114,66 Q111,57 111,52 Q111,47 115.5,42.5 Q120,38 126,38 Q137,38 157.5,57 Q178,76 196,104 M211,617 Q231,617 246,601.5 Q261,586 261,566 Q261,545 246,530 Q231,515 210,515 Q189,515 174,530 Q159,545 159,566 Q159,587 174,602 Q189,617 211,617 M314,401 L319,419 Q390,425 463,440 L348,37 Q320,-63 269.5,-117.5 Q219,-172 157,-172 Q126,-172 106,-159 Q86,-146 86,-126 Q86,-110 97.5,-99 Q109,-88 126,-88 Q141,-88 150,-96 Q159,-104 159,-117 Q159,-142 133,-142 Q142,-155 158,-155 Q192,-155 217,-122 Q231,-104 239,-85 Q247,-66 263,-12 L366,351 Q372,370 372,378 Q372,404 342,404 Q336,404 314,401 M451,617 Q471,617 486,601.5 Q501,586 501,566 Q501,545 486,530 Q471,515 450,515 Q429,515 414,530 Q399,545 399,566 Q399,587 414,602 Q429,617 451,617"/> 
            <glyph glyph-name="Ķ" unicode="&#x136;" horiz-adv-x="721" d=" M255,351 L184,100 Q178,77 178,59 Q178,36 194.5,27 Q211,18 255,18 L249,0 L-17,0 L-12,18 Q35,19 55.5,36.5 Q76,54 90,106 L222,567 Q229,593 229,608 Q229,635 204,644 Q189,649 155,649 L160,667 L425,667 L420,649 Q371,648 351,631 Q331,614 317,561 L261,369 L544,605 Q565,622 565,631 Q565,649 522,649 L516,649 L522,667 L721,667 L715,649 Q663,648 607,605 L339,387 L473,131 Q509,63 537.5,40 Q566,17 613,18 L607,0 L339,0 L345,18 Q408,22 408,53 Q408,71 392,100 M213,-227 L195,-206 Q265,-175 265,-140 Q265,-128 247,-111 Q236,-100 236,-85 Q236,-67 249,-53.5 Q262,-40 279,-40 Q298,-40 311.5,-55.5 Q325,-71 325,-92 Q325,-131 295,-167.5 Q265,-204 213,-227"/> 
            <glyph glyph-name="ķ" unicode="&#x137;" horiz-adv-x="501" d=" M142,177 L91,0 L23,0 L185,586 Q191,607 191,616 Q191,624 184,630 Q177,636 167,636 Q164,636 150,634 L140,633 L145,652 Q211,659 284,675 L153,215 L286,329 Q341,377 350.5,386.5 Q360,396 360,405 Q360,413 352.5,415.5 Q345,418 319,420 L323,435 L501,435 L497,420 Q418,417 259,275 L322,100 Q344,39 367,39 Q381,39 401.5,63 Q422,87 441,124 L455,116 Q421,54 391,22 Q360,-12 328,-12 Q293,-12 275,40 L207,232 M111,-209 L95,-190 Q158,-161 158,-130 Q158,-120 142,-104 Q131,-95 131,-81 Q131,-65 143,-52.5 Q155,-40 171,-40 Q187,-40 199.5,-54 Q212,-68 212,-87 Q212,-121 185,-154 Q158,-187 111,-209"/> 
            <glyph glyph-name="ĸ" unicode="&#x138;" horiz-adv-x="501" d=" M142,177 L91,0 L23,0 L121,362 Q127,384 127,392 Q127,400 120,406 Q113,412 103,412 Q100,412 86,410 L76,408 L81,428 Q146,435 220,450 L153,215 L286,329 Q341,377 350.5,386.5 Q360,396 360,405 Q360,413 352.5,415.5 Q345,418 319,420 L323,435 L501,435 L497,420 Q418,417 259,275 L322,100 Q344,39 367,39 Q381,39 401.5,63 Q422,87 441,124 L455,116 Q421,54 391,22 Q360,-12 328,-12 Q293,-12 275,40 L207,232"/> 
            <glyph glyph-name="Ĺ" unicode="&#x139;" horiz-adv-x="562" d=" M562,185 L499,0 L-13,0 L-8,18 Q38,19 57,36 Q76,53 90,105 L223,567 Q229,588 229,608 Q229,635 204,644 Q192,649 151,649 L156,667 L441,667 L435,649 Q376,650 354.5,633.5 Q333,617 317,561 L185,98 Q177,72 177,62 Q177,34 214,34 L303,34 Q404,34 452,64 Q509,101 544,185 M508,836 L269,713 L368,836"/> 
            <glyph glyph-name="ĺ" unicode="&#x13A;" horiz-adv-x="418" d=" M189,93 L201,80 Q154,25 127.5,5.5 Q101,-14 73,-14 Q55,-14 43,-2 Q31,10 31,28 Q31,37 38,60 L189,588 Q195,609 195,616 Q195,624 188,630 Q181,636 172,636 Q169,636 155,634 L144,633 L150,652 Q211,658 285,672 L110,60 Q108,52 108,48 Q108,35 121,35 Q132,35 144,45 Q156,55 189,93 M418,829 L203,706 L289,829"/> 
            <glyph glyph-name="Ļ" unicode="&#x13B;" horiz-adv-x="562" d=" M562,185 L499,0 L-13,0 L-8,18 Q38,19 57,36 Q76,53 90,105 L223,567 Q229,588 229,608 Q229,635 204,644 Q192,649 151,649 L156,667 L441,667 L435,649 Q376,650 354.5,633.5 Q333,617 317,561 L185,98 Q177,72 177,62 Q177,34 214,34 L303,34 Q404,34 452,64 Q509,101 544,185 M184,-227 L166,-206 Q236,-175 236,-140 Q236,-128 218,-111 Q207,-100 207,-85 Q207,-67 220,-53.5 Q233,-40 250,-40 Q269,-40 282.5,-55.5 Q296,-71 296,-92 Q296,-131 266,-167.5 Q236,-204 184,-227"/> 
            <glyph glyph-name="ļ" unicode="&#x13C;" horiz-adv-x="286" d=" M190,93 L201,80 Q155,25 128.5,5.5 Q102,-14 74,-14 Q56,-14 44,-2 Q32,10 32,28 Q32,34 38,60 L190,588 Q195,610 195,616 Q195,624 188,630 Q181,636 172,636 Q169,636 155,634 L145,633 L151,652 Q213,658 286,672 L111,60 Q109,52 109,48 Q109,35 122,35 Q132,35 143.5,44 Q155,53 180,82 Q183,86 190,93 M-4,-209 L-20,-190 Q43,-161 43,-130 Q43,-120 27,-104 Q16,-95 16,-81 Q16,-65 28,-52.5 Q40,-40 56,-40 Q72,-40 84.5,-54 Q97,-68 97,-87 Q97,-121 70,-154 Q43,-187 -4,-209"/> 
            <glyph glyph-name="Ľ" unicode="&#x13D;" horiz-adv-x="609" d=" M562,185 L499,0 L-13,0 L-8,18 Q38,19 57,36 Q76,53 90,105 L223,567 Q229,588 229,608 Q229,635 204,644 Q192,649 151,649 L156,667 L441,667 L435,649 Q376,650 354.5,633.5 Q333,617 317,561 L185,98 Q177,72 177,62 Q177,34 214,34 L303,34 Q404,34 452,64 Q509,101 544,185 M497,490 L479,511 Q549,542 549,577 Q549,589 531,606 Q520,617 520,632 Q520,650 533,663.5 Q546,677 563,677 Q582,677 595.5,661.5 Q609,646 609,625 Q609,586 579,549.5 Q549,513 497,490"/> 
            <glyph glyph-name="ľ" unicode="&#x13E;" horiz-adv-x="410" d=" M189,93 L201,80 Q154,25 127.5,5.5 Q101,-14 73,-14 Q55,-14 43,-2 Q31,10 31,28 Q31,37 38,60 L189,588 Q195,609 195,616 Q195,624 188,630 Q181,636 172,636 Q169,636 155,634 L144,633 L150,652 Q211,658 285,672 L110,60 Q108,52 108,48 Q108,35 121,35 Q132,35 144,45 Q156,55 189,93 M309,508 L293,527 Q356,556 356,587 Q356,597 340,613 Q329,622 329,636 Q329,652 341,664.5 Q353,677 369,677 Q385,677 397.5,663 Q410,649 410,630 Q410,596 383,563 Q356,530 309,508"/> 
            <glyph glyph-name="Ŀ" unicode="&#x13F;" horiz-adv-x="562" d=" M562,185 L499,0 L-13,0 L-8,18 Q38,19 57,36 Q76,53 90,105 L223,567 Q229,588 229,608 Q229,635 204,644 Q192,649 151,649 L156,667 L441,667 L435,649 Q376,650 354.5,633.5 Q333,617 317,561 L185,98 Q177,72 177,62 Q177,34 214,34 L303,34 Q404,34 452,64 Q509,101 544,185 M496,398 Q520,398 538,380 Q556,362 556,337 Q556,312 538,294 Q520,276 495,276 Q469,276 451.5,294 Q434,312 434,338 Q434,363 452,380.5 Q470,398 496,398"/> 
            <glyph glyph-name="ŀ" unicode="&#x140;" horiz-adv-x="399" d=" M189,93 L201,80 Q154,25 127.5,5.5 Q101,-14 73,-14 Q55,-14 43,-2 Q31,10 31,28 Q31,37 38,60 L189,588 Q195,609 195,616 Q195,624 188,630 Q181,636 172,636 Q169,636 155,634 L144,633 L150,652 Q211,658 285,672 L110,60 Q108,52 108,48 Q108,35 121,35 Q132,35 144,45 Q156,55 189,93 M339,398 Q363,398 381,380 Q399,362 399,337 Q399,312 381,294 Q363,276 338,276 Q312,276 294.5,294 Q277,312 277,338 Q277,363 295,380.5 Q313,398 339,398"/> 
            <glyph glyph-name="Ł" unicode="&#x141;" horiz-adv-x="562" d=" M140,277 L49,232 L62,280 L153,325 L223,567 Q229,588 229,608 Q229,635 204,644 Q192,649 151,649 L156,667 L441,667 L435,649 Q376,650 354.5,633.5 Q333,617 317,561 L261,364 L433,448 L419,401 L247,317 L185,98 Q177,72 177,62 Q177,34 214,34 L303,34 Q404,34 452,64 Q509,101 544,185 L562,185 L499,0 L-13,0 L-8,18 Q38,19 57,36 Q76,53 90,105"/> 
            <glyph glyph-name="ł" unicode="&#x142;" horiz-adv-x="288" d=" M109,307 L30,271 L41,310 L120,346 L189,588 Q195,608 195,616 Q195,624 188,630 Q181,636 172,636 Q169,636 155,634 L145,633 L150,652 Q213,658 286,672 L199,370 L288,411 L277,372 L188,331 L111,60 Q108,52 108,48 Q107,43 111,39 Q115,35 121,35 Q131,35 142.5,44 Q154,53 180,82 L189,93 L201,80 Q154,25 127.5,5.5 Q101,-14 73,-14 Q55,-14 43,-2 Q31,10 31,28 Q31,36 38,60"/> 
            <glyph glyph-name="Ń" unicode="&#x143;" horiz-adv-x="737" d=" M253,544 L126,100 Q119,74 119,59 Q119,32 144,23 Q159,18 195,18 L190,0 L-18,0 L-13,18 Q35,19 55,36 Q75,53 90,105 L232,602 Q205,650 147,650 L128,650 L132,667 L308,667 L482,180 L593,566 Q599,588 599,608 Q599,630 583,639 Q567,648 526,649 L532,667 L737,667 L732,649 Q685,648 664.5,630.5 Q644,613 630,561 L467,-8 L453,-8 M646,836 L407,713 L506,836"/> 
            <glyph glyph-name="ń" unicode="&#x144;" horiz-adv-x="465" d=" M227,447 L161,236 Q238,347 290.5,394.5 Q343,442 388,442 Q413,442 427.5,425 Q442,408 442,379 Q442,352 434,322 L362,72 Q358,60 358,50 Q358,45 362,40.5 Q366,36 371,36 Q394,36 439,94 L448,84 Q377,-11 319,-11 Q301,-11 289,0.5 Q277,12 277,29 Q277,43 283,59 L361,311 Q369,337 369,357 Q369,369 361.5,377.5 Q354,386 344,386 Q303,386 219,281 Q148,192 126,115 L93,0 L20,0 L127,355 Q137,390 137,397 Q137,405 130,411 Q123,417 113,417 Q110,417 96,415 L85,413 L91,433 Q160,437 227,447 M465,648 L274,497 L359,648"/> 
            <glyph glyph-name="Ņ" unicode="&#x145;" horiz-adv-x="737" d=" M253,544 L126,100 Q119,74 119,59 Q119,32 144,23 Q159,18 195,18 L190,0 L-18,0 L-13,18 Q35,19 55,36 Q75,53 90,105 L232,602 Q205,650 147,650 L128,650 L132,667 L308,667 L482,180 L593,566 Q599,588 599,608 Q599,630 583,639 Q567,648 526,649 L532,667 L737,667 L732,649 Q685,648 664.5,630.5 Q644,613 630,561 L467,-8 L453,-8 M198,-227 L180,-206 Q250,-175 250,-140 Q250,-128 232,-111 Q221,-100 221,-85 Q221,-67 234,-53.5 Q247,-40 264,-40 Q283,-40 296.5,-55.5 Q310,-71 310,-92 Q310,-131 280,-167.5 Q250,-204 198,-227"/> 
            <glyph glyph-name="ņ" unicode="&#x146;" horiz-adv-x="448" d=" M227,447 L161,236 Q238,347 290.5,394.5 Q343,442 388,442 Q413,442 427.5,425 Q442,408 442,379 Q442,352 434,322 L362,72 Q358,60 358,50 Q358,45 362,40.5 Q366,36 371,36 Q394,36 439,94 L448,84 Q377,-11 319,-11 Q301,-11 289,0.5 Q277,12 277,29 Q277,43 283,59 L361,311 Q369,337 369,357 Q369,369 361.5,377.5 Q354,386 344,386 Q303,386 219,281 Q148,192 126,115 L93,0 L20,0 L127,355 Q137,390 137,397 Q137,405 130,411 Q123,417 113,417 Q110,417 96,415 L85,413 L91,433 Q160,437 227,447 M113,-209 L97,-190 Q160,-161 160,-130 Q160,-120 144,-104 Q133,-95 133,-81 Q133,-65 145,-52.5 Q157,-40 173,-40 Q189,-40 201.5,-54 Q214,-68 214,-87 Q214,-121 187,-154 Q160,-187 113,-209"/> 
            <glyph glyph-name="Ň" unicode="&#x147;" horiz-adv-x="737" d=" M253,544 L126,100 Q119,74 119,59 Q119,32 144,23 Q159,18 195,18 L190,0 L-18,0 L-13,18 Q35,19 55,36 Q75,53 90,105 L232,602 Q205,650 147,650 L128,650 L132,667 L308,667 L482,180 L593,566 Q599,588 599,608 Q599,630 583,639 Q567,648 526,649 L532,667 L737,667 L732,649 Q685,648 664.5,630.5 Q644,613 630,561 L467,-8 L453,-8 M458,769 L614,854 L483,725 L406,725 L363,854"/> 
            <glyph glyph-name="ň" unicode="&#x148;" horiz-adv-x="448" d=" M227,447 L161,236 Q238,347 290.5,394.5 Q343,442 388,442 Q413,442 427.5,425 Q442,408 442,379 Q442,352 434,322 L362,72 Q358,60 358,50 Q358,45 362,40.5 Q366,36 371,36 Q394,36 439,94 L448,84 Q377,-11 319,-11 Q301,-11 289,0.5 Q277,12 277,29 Q277,43 283,59 L361,311 Q369,337 369,357 Q369,369 361.5,377.5 Q354,386 344,386 Q303,386 219,281 Q148,192 126,115 L93,0 L20,0 L127,355 Q137,390 137,397 Q137,405 130,411 Q123,417 113,417 Q110,417 96,415 L85,413 L91,433 Q160,437 227,447 M322,561 L447,674 L348,513 L276,513 L246,674"/> 
            <glyph glyph-name="ŉ" unicode="&#x149;" horiz-adv-x="614" d=" M145,493 L127,513 Q198,545 198,580 Q198,592 180,609 Q168,618 168,634 Q168,652 181.5,666 Q195,680 212,680 Q231,680 244.5,664.5 Q258,649 258,627 Q258,589 227.5,552.5 Q197,516 145,493 M393,447 L326,236 Q404,347 456.5,394.5 Q509,442 554,442 Q579,442 593.5,425 Q608,408 608,379 Q608,350 599,322 L527,72 Q524,60 524,50 Q524,45 528,40.5 Q532,36 537,36 Q561,36 604,94 L614,84 Q542,-11 485,-11 Q467,-11 455,0.5 Q443,12 443,29 Q443,41 448,59 L526,311 Q535,338 535,357 Q535,369 527.5,377.5 Q520,386 510,386 Q469,386 385,281 Q315,193 291,115 L258,0 L185,0 L292,355 Q302,384 302,397 Q302,405 295,411 Q288,417 278,417 Q275,417 261,415 L251,413 L256,433 Q325,437 393,447"/> 
            <glyph glyph-name="Ŋ" unicode="&#x14A;" horiz-adv-x="667" d=" M145,589 L143,606 Q211,624 350,674 L317,559 Q470,674 569,674 Q614,674 640.5,644.5 Q667,615 667,565 Q667,514 635,401 L531,37 Q504,-55 442,-109.5 Q380,-164 302,-164 Q262,-164 238.5,-148.5 Q215,-133 215,-106 Q215,-80 234.5,-61 Q254,-42 281,-42 Q304,-42 313.5,-53 Q323,-64 330,-98 Q334,-123 353,-123 Q373,-123 388,-98.5 Q403,-74 420,-11 L544,419 Q568,504 568,535 Q568,604 499,604 Q457,604 415.5,584 Q374,564 302,508 L186,104 Q178,72 178,59 Q178,38 190,29 Q202,20 231,19 L253,18 L248,0 L-31,0 L-26,18 L-3,19 Q38,21 57.5,38.5 Q77,56 90,104 L215,541 Q220,554 220,570 Q220,596 185,596 Q170,596 145,589"/> 
            <glyph glyph-name="ŋ" unicode="&#x14B;" horiz-adv-x="442" d=" M227,447 L161,236 Q238,347 290.5,394.5 Q343,442 388,442 Q413,442 427.5,425 Q442,408 442,379 Q442,352 434,322 L352,37 Q323,-62 273,-117 Q223,-172 161,-172 Q130,-172 110,-159 Q90,-146 90,-126 Q90,-110 101.5,-99 Q113,-88 130,-88 Q144,-88 153.5,-96 Q163,-104 163,-117 Q163,-142 138,-142 Q147,-155 163,-155 Q196,-155 222,-122 Q236,-104 243.5,-85.5 Q251,-67 267,-11 L359,311 Q368,338 368,357 Q368,369 361,377.5 Q354,386 344,386 Q304,386 219,281 Q148,192 126,115 L93,0 L20,0 L127,355 Q137,390 137,397 Q137,405 130,411 Q123,417 113,417 Q110,417 96,415 L85,413 L91,433 Q160,437 227,447"/> 
            <glyph glyph-name="Ō" unicode="&#x14C;" horiz-adv-x="661" d=" M444,670 Q541,670 601,607 Q661,544 661,443 Q661,352 615,254 Q569,156 492,81 Q398,-10 273,-10 Q172,-10 113.5,51.5 Q55,113 55,219 Q55,304 93,393 Q131,482 199,553 Q252,608 317,639 Q382,670 444,670 M436,633 Q398,633 359.5,611 Q321,589 292,551 Q234,474 195.5,365.5 Q157,257 157,170 Q157,105 191,64.5 Q225,24 279,24 Q329,24 378,62 Q427,100 464,167 Q508,246 533.5,332 Q559,418 559,486 Q559,554 526,593.5 Q493,633 436,633 M643,806 L627,751 L332,751 L348,806"/> 
            <glyph glyph-name="ō" unicode="&#x14D;" horiz-adv-x="438" d=" M288,446 Q346,446 383.5,400.5 Q421,355 421,285 Q421,222 392.5,161.5 Q364,101 314,58 Q236,-11 162,-11 Q102,-11 65.5,33.5 Q29,78 29,150 Q29,261 110,353.5 Q191,446 288,446 M278,421 Q218,421 171,346 Q140,298 120.5,232 Q101,166 101,110 Q101,66 120,40 Q139,14 171,14 Q234,14 281,100 Q309,151 327,213.5 Q345,276 345,325 Q345,367 326,394 Q307,421 278,421 M438,583 L424,534 L191,534 L205,583"/> 
            <glyph glyph-name="Ő" unicode="&#x150;" horiz-adv-x="675" d=" M444,670 Q541,670 601,607 Q661,544 661,443 Q661,352 615,254 Q569,156 492,81 Q398,-10 273,-10 Q172,-10 113.5,51.5 Q55,113 55,219 Q55,304 93,393 Q131,482 199,553 Q252,608 317,639 Q382,670 444,670 M436,633 Q398,633 359.5,611 Q321,589 292,551 Q234,474 195.5,365.5 Q157,257 157,170 Q157,105 191,64.5 Q225,24 279,24 Q329,24 378,62 Q427,100 464,167 Q508,246 533.5,332 Q559,418 559,486 Q559,554 526,593.5 Q493,633 436,633 M542,836 L376,713 L442,836 M675,836 L509,713 L575,836"/> 
            <glyph glyph-name="ő" unicode="&#x151;" horiz-adv-x="511" d=" M288,446 Q346,446 383.5,400.5 Q421,355 421,285 Q421,222 392.5,161.5 Q364,101 314,58 Q236,-11 162,-11 Q102,-11 65.5,33.5 Q29,78 29,150 Q29,261 110,353.5 Q191,446 288,446 M278,421 Q218,421 171,346 Q140,298 120.5,232 Q101,166 101,110 Q101,66 120,40 Q139,14 171,14 Q234,14 281,100 Q309,151 327,213.5 Q345,276 345,325 Q345,367 326,394 Q307,421 278,421 M371,648 L207,497 L275,648 M511,648 L347,497 L415,648"/> 
            <glyph glyph-name="Œ" unicode="&#x152;" horiz-adv-x="973" d=" M591,336 L522,95 Q515,69 515,65 Q513,38 565,38 L611,38 Q712,38 774,73.5 Q836,109 874,189 L886,189 L819,0 L401,0 L375,-2 L336,-5 Q310,-7 300,-7 Q188,-7 122,57 Q56,121 56,229 Q56,327 114.5,435 Q173,543 258,604 Q356,673 491,673 Q529,673 578,667 L973,667 L933,510 L917,510 Q923,540 923,553 Q923,590 898,610.5 Q873,631 827,631 L675,631 L600,368 L674,368 Q781,368 804,469 L820,469 L751,226 L734,226 Q745,262 745,283 Q745,310 729,323 Q714,336 673,336 M464,219 L528,440 Q548,511 548,544 Q548,582 521.5,607.5 Q495,633 455,633 Q348,633 265,514 Q216,443 187.5,355 Q159,267 159,188 Q159,117 193,76.5 Q227,36 285,36 Q412,36 464,219"/> 
            <glyph glyph-name="œ" unicode="&#x153;" horiz-adv-x="545" d=" M481,112 L493,98 Q450,46 401.5,15 Q353,-16 315,-16 Q254,-16 240,43 Q206,11 183,-1 Q160,-13 129,-13 Q82,-13 51.5,26.5 Q21,66 21,127 Q21,242 100.5,343 Q180,444 270,444 Q336,444 349,372 Q417,446 476,446 Q505,446 525,425.5 Q545,405 545,376 Q545,339 520.5,301 Q496,263 457,241 Q411,214 329,199 Q305,116 305,86 Q305,62 319.5,48 Q334,34 359,34 Q409,34 481,112 M335,223 Q350,226 358,229 Q413,245 452,290.5 Q491,336 491,385 Q491,419 466,419 Q403,419 335,223 M257,419 Q216,419 176,351 Q144,295 119.5,216 Q95,137 95,87 Q95,54 108,35.5 Q121,17 144,17 Q167,17 186.5,41 Q206,65 226,120 Q293,299 293,372 Q293,419 257,419"/> 
            <glyph glyph-name="Ŕ" unicode="&#x154;" horiz-adv-x="586" d=" M249,330 L184,100 Q177,79 177,59 Q177,32 202,23 Q217,18 252,18 L247,0 L-19,0 L-14,18 Q35,19 55.5,35.5 Q76,52 91,105 L223,566 Q230,592 230,607 Q230,635 205,644 Q190,649 156,649 L161,667 L409,667 Q485,667 532.5,627.5 Q580,588 580,524 Q580,447 514,387 Q476,352 402,330 L487,117 Q508,63 529.5,41 Q551,19 586,16 L582,0 L435,0 L310,321 Q294,323 292,323 Q266,325 249,330 M335,627 L258,358 Q287,352 312,352 Q382,352 422,386 Q448,409 465.5,448 Q483,487 483,523 Q483,565 459,595 Q433,630 378,630 Q365,630 335,627 M569,836 L330,713 L429,836"/> 
            <glyph glyph-name="ŕ" unicode="&#x155;" horiz-adv-x="399" d=" M222,450 L160,235 Q204,334 249,393 Q294,452 327,452 Q344,452 355.5,436.5 Q367,421 367,398 Q367,372 351,350.5 Q335,329 316,329 Q288,329 285,356 Q282,371 277,371 Q271,371 249.5,341 Q228,311 212,281 Q133,132 100,0 L23,0 L125,355 Q135,392 135,397 Q135,405 128,411 Q121,417 113,417 Q109,417 97,415 Q95,415 73,411 L79,432 Q159,440 222,450 M399,648 L208,497 L293,648"/> 
            <glyph glyph-name="Ŗ" unicode="&#x156;" horiz-adv-x="586" d=" M249,330 L184,100 Q177,79 177,59 Q177,32 202,23 Q217,18 252,18 L247,0 L-19,0 L-14,18 Q35,19 55.5,35.5 Q76,52 91,105 L223,566 Q230,592 230,607 Q230,635 205,644 Q190,649 156,649 L161,667 L409,667 Q485,667 532.5,627.5 Q580,588 580,524 Q580,447 514,387 Q476,352 402,330 L487,117 Q508,63 529.5,41 Q551,19 586,16 L582,0 L435,0 L310,321 Q294,323 292,323 Q266,325 249,330 M335,627 L258,358 Q287,352 312,352 Q382,352 422,386 Q448,409 465.5,448 Q483,487 483,523 Q483,565 459,595 Q433,630 378,630 Q365,630 335,627 M225,-227 L207,-206 Q277,-175 277,-140 Q277,-128 259,-111 Q248,-100 248,-85 Q248,-67 261,-53.5 Q274,-40 291,-40 Q310,-40 323.5,-55.5 Q337,-71 337,-92 Q337,-131 307,-167.5 Q277,-204 225,-227"/> 
            <glyph glyph-name="ŗ" unicode="&#x157;" horiz-adv-x="367" d=" M222,450 L160,235 Q204,334 249,393 Q294,452 327,452 Q344,452 355.5,436.5 Q367,421 367,398 Q367,372 351,350.5 Q335,329 316,329 Q289,329 284,356 Q283,371 277,371 Q270,371 249,342 Q228,313 211,281 Q133,133 100,0 L23,0 L125,355 Q135,392 135,397 Q135,405 128,411 Q121,417 113,417 Q109,417 97,415 Q95,415 73,411 L79,432 Q159,440 222,450 M-16,-209 L-32,-190 Q31,-161 31,-130 Q31,-120 15,-104 Q4,-95 4,-81 Q4,-65 16,-52.5 Q28,-40 44,-40 Q60,-40 72.5,-54 Q85,-68 85,-87 Q85,-121 58,-154 Q31,-187 -16,-209"/> 
            <glyph glyph-name="Ř" unicode="&#x158;" horiz-adv-x="586" d=" M249,330 L184,100 Q177,79 177,59 Q177,32 202,23 Q217,18 252,18 L247,0 L-19,0 L-14,18 Q35,19 55.5,35.5 Q76,52 91,105 L223,566 Q230,592 230,607 Q230,635 205,644 Q190,649 156,649 L161,667 L409,667 Q485,667 532.5,627.5 Q580,588 580,524 Q580,447 514,387 Q476,352 402,330 L487,117 Q508,63 529.5,41 Q551,19 586,16 L582,0 L435,0 L310,321 Q294,323 292,323 Q266,325 249,330 M335,627 L258,358 Q287,352 312,352 Q382,352 422,386 Q448,409 465.5,448 Q483,487 483,523 Q483,565 459,595 Q433,630 378,630 Q365,630 335,627 M394,769 L550,854 L419,725 L342,725 L299,854"/> 
            <glyph glyph-name="ř" unicode="&#x159;" horiz-adv-x="388" d=" M222,450 L160,235 Q204,334 249,393 Q294,452 327,452 Q344,452 355.5,436.5 Q367,421 367,398 Q367,372 351,350.5 Q335,329 316,329 Q288,329 285,356 Q282,371 277,371 Q271,371 249.5,341 Q228,311 212,281 Q133,132 100,0 L23,0 L125,355 Q135,392 135,397 Q135,405 128,411 Q121,417 113,417 Q109,417 97,415 Q95,415 73,411 L79,432 Q159,440 222,450 M263,561 L388,674 L289,513 L217,513 L187,674"/> 
            <glyph glyph-name="Ś" unicode="&#x15A;" horiz-adv-x="564" d=" M564,667 L509,448 L492,448 Q497,475 497,493 Q497,550 455,589 Q413,628 351,628 Q302,628 268.5,599.5 Q235,571 235,529 Q235,497 254,468.5 Q273,440 322,397 Q375,351 397,329.5 Q419,308 436,283 Q476,227 476,171 Q476,131 455,91.5 Q434,52 399,26 Q345,-15 265,-15 Q208,-15 134,15 Q102,27 91,27 Q65,27 42,-17 L25,-17 L76,230 L94,230 Q89,193 89,177 Q89,113 135,68 Q181,23 246,23 Q302,23 340,60.5 Q378,98 378,154 Q378,193 358.5,225 Q339,257 290,298 Q205,370 179,402 Q143,448 143,498 Q143,566 201,617 Q259,668 336,668 Q388,668 449,643 Q480,630 493,630 Q526,630 545,667 M553,836 L314,713 L413,836"/> 
            <glyph glyph-name="ś" unicode="&#x15B;" horiz-adv-x="385" d=" M332,442 L307,299 L291,299 Q292,308 292,319 Q292,362 268,390.5 Q244,419 209,419 Q184,419 167.5,402 Q151,385 151,359 Q151,338 162.5,317 Q174,296 208,256 Q249,207 264,178 Q279,149 279,117 Q279,63 239.5,25 Q200,-13 144,-13 Q116,-13 63,4 Q54,8 43,8 Q26,8 15,-12 L-4,-12 L24,140 L40,140 Q41,82 66,46.5 Q91,11 131,11 Q163,11 187,35.5 Q211,60 211,93 Q211,135 155,201 Q115,248 102,274.5 Q89,301 89,334 Q89,380 121.5,413 Q154,446 200,446 Q236,446 270,426 Q282,420 289,420 Q303,420 318,442 M385,648 L194,497 L279,648"/> 
            <glyph glyph-name="Ŝ" unicode="&#x15C;" horiz-adv-x="564" d=" M564,667 L509,448 L492,448 Q497,475 497,493 Q497,550 455,589 Q413,628 351,628 Q302,628 268.5,599.5 Q235,571 235,529 Q235,497 254,468.5 Q273,440 322,397 Q375,351 397,329.5 Q419,308 436,283 Q476,227 476,171 Q476,131 455,91.5 Q434,52 399,26 Q345,-15 265,-15 Q208,-15 134,15 Q102,27 91,27 Q65,27 42,-17 L25,-17 L76,230 L94,230 Q89,193 89,177 Q89,113 135,68 Q181,23 246,23 Q302,23 340,60.5 Q378,98 378,154 Q378,193 358.5,225 Q339,257 290,298 Q205,370 179,402 Q143,448 143,498 Q143,566 201,617 Q259,668 336,668 Q388,668 449,643 Q480,630 493,630 Q526,630 545,667 M393,797 L238,712 L369,841 L445,841 L489,712"/> 
            <glyph glyph-name="ŝ" unicode="&#x15D;" horiz-adv-x="332" d=" M332,442 L307,299 L291,299 Q292,308 292,319 Q292,362 268,390.5 Q244,419 209,419 Q184,419 167.5,402 Q151,385 151,359 Q151,338 162.5,317 Q174,296 208,256 Q249,207 264,178 Q279,149 279,117 Q279,63 239.5,25 Q200,-13 144,-13 Q116,-13 63,4 Q54,8 43,8 Q26,8 15,-12 L-4,-12 L24,140 L40,140 Q41,82 66,46.5 Q91,11 131,11 Q163,11 187,35.5 Q211,60 211,93 Q211,135 155,201 Q115,248 102,274.5 Q89,301 89,334 Q89,380 121.5,413 Q154,446 200,446 Q236,446 270,426 Q282,420 289,420 Q303,420 318,442 M248,613 L122,500 L221,660 L293,660 L324,500"/> 
            <glyph glyph-name="Ş" unicode="&#x15E;" horiz-adv-x="564" d=" M258,-15 L245,-41 Q312,-57 312,-104 Q312,-132 284,-154 Q256,-176 220,-176 Q186,-176 128,-152 L142,-137 Q175,-146 196,-146 Q249,-146 249,-118 Q249,-85 194,-85 L181,-85 L230,-14 Q191,-9 134,14 Q102,27 91,27 Q65,27 42,-17 L25,-17 L76,230 L94,230 Q89,193 89,177 Q89,113 135,68 Q181,23 246,23 Q302,23 340,60.5 Q378,98 378,154 Q378,193 358.5,225 Q339,257 290,298 Q205,370 179,402 Q143,448 143,498 Q143,566 201,617 Q259,668 336,668 Q388,668 449,643 Q480,630 493,630 Q526,630 545,667 L564,667 L509,448 L492,448 Q497,475 497,493 Q497,550 455,589 Q413,628 351,628 Q302,628 268.5,599.5 Q235,571 235,529 Q235,497 254,468.5 Q273,440 322,397 Q376,350 397.5,329 Q419,308 436,283 Q476,227 476,171 Q476,130 455,90.5 Q434,51 399,26 Q339,-18 274,-15 Q261,-14 258,-15"/> 
            <glyph glyph-name="ş" unicode="&#x15F;" horiz-adv-x="332" d=" M134,-14 L119,-36 Q180,-42 180,-87 Q180,-117 154.5,-139.5 Q129,-162 95,-162 Q61,-162 29,-144 L32,-134 Q59,-145 75,-145 Q97,-145 112.5,-132.5 Q128,-120 128,-102 Q128,-87 115.5,-78 Q103,-69 83,-69 Q76,-69 57,-72 L109,-11 Q107,-11 104.5,-10 Q102,-9 100,-8 L98,-8 Q96,-8 83,-3 Q55,8 42,8 Q26,8 15,-12 L-4,-12 L24,140 L40,140 Q41,82 66,46.5 Q91,11 131,11 Q163,11 187,35.5 Q211,60 211,93 Q211,135 155,201 Q115,248 102,274.5 Q89,301 89,334 Q89,380 121.5,413 Q154,446 200,446 Q236,446 270,426 Q282,420 289,420 Q303,420 318,442 L332,442 L307,299 L291,299 Q292,308 292,319 Q292,362 268,390.5 Q244,419 209,419 Q184,419 167.5,402 Q151,385 151,359 Q151,338 162.5,317 Q174,296 208,256 Q249,207 264,178 Q279,149 279,117 Q279,77 255.5,43.5 Q232,10 194,-4 Q172,-12 134,-14"/> 
            <glyph glyph-name="Š" unicode="&#x160;" horiz-adv-x="564" d=" M564,667 L509,448 L492,448 Q497,475 497,493 Q497,550 455,589 Q413,628 351,628 Q302,628 268.5,599.5 Q235,571 235,529 Q235,497 254,468.5 Q273,440 322,397 Q375,351 397,329.5 Q419,308 436,283 Q476,227 476,171 Q476,131 455,91.5 Q434,52 399,26 Q345,-15 265,-15 Q208,-15 134,15 Q102,27 91,27 Q65,27 42,-17 L25,-17 L76,230 L94,230 Q89,193 89,177 Q89,113 135,68 Q181,23 246,23 Q302,23 340,60.5 Q378,98 378,154 Q378,193 358.5,225 Q339,257 290,298 Q205,370 179,402 Q143,448 143,498 Q143,566 201,617 Q259,668 336,668 Q388,668 449,643 Q480,630 493,630 Q526,630 545,667 M385,769 L541,854 L410,725 L333,725 L290,854"/> 
            <glyph glyph-name="š" unicode="&#x161;" horiz-adv-x="358" d=" M332,442 L307,299 L291,299 Q292,308 292,319 Q292,362 268,390.5 Q244,419 209,419 Q184,419 167.5,402 Q151,385 151,359 Q151,338 162.5,317 Q174,296 208,256 Q249,207 264,178 Q279,149 279,117 Q279,63 239.5,25 Q200,-13 144,-13 Q116,-13 63,4 Q54,8 43,8 Q26,8 15,-12 L-4,-12 L24,140 L40,140 Q41,82 66,46.5 Q91,11 131,11 Q163,11 187,35.5 Q211,60 211,93 Q211,135 155,201 Q115,248 102,274.5 Q89,301 89,334 Q89,380 121.5,413 Q154,446 200,446 Q236,446 270,426 Q282,420 289,420 Q303,420 318,442 M233,561 L358,674 L259,513 L187,513 L157,674"/> 
            <glyph glyph-name="Ţ" unicode="&#x162;" horiz-adv-x="681" d=" M447,626 L297,100 Q290,80 290,59 Q290,32 315,23 Q332,18 369,18 L379,18 L373,0 L85,0 L90,18 Q146,18 167,34.5 Q188,51 203,106 L352,626 L289,626 Q201,626 153,578 Q126,551 110,491 L91,491 L141,667 L681,667 L631,491 L614,491 Q622,528 622,560 Q622,626 544,626 M151,-227 L133,-206 Q203,-175 203,-140 Q203,-128 185,-111 Q174,-100 174,-85 Q174,-67 187,-53.5 Q200,-40 217,-40 Q236,-40 249.5,-55.5 Q263,-71 263,-92 Q263,-131 233,-167.5 Q203,-204 151,-227"/> 
            <glyph glyph-name="ţ" unicode="&#x163;" horiz-adv-x="285" d=" M212,405 L123,95 Q113,56 113,50 Q113,44 118,39.5 Q123,35 129,35 Q156,35 204,103 L216,90 Q145,-13 89,-13 Q67,-13 53.5,0.5 Q40,14 40,36 Q40,57 52,103 L139,405 L70,405 L79,436 Q123,445 156,469 Q189,493 229,546 L252,546 L221,436 L285,436 L276,405 M5,-209 L-11,-190 Q52,-161 52,-130 Q52,-120 36,-104 Q25,-95 25,-81 Q25,-65 37,-52.5 Q49,-40 65,-40 Q81,-40 93.5,-54 Q106,-68 106,-87 Q106,-121 79,-154 Q52,-187 5,-209"/> 
            <glyph glyph-name="Ť" unicode="&#x164;" horiz-adv-x="681" d=" M447,626 L297,100 Q290,80 290,59 Q290,32 315,23 Q332,18 369,18 L379,18 L373,0 L85,0 L90,18 Q146,18 167,34.5 Q188,51 203,106 L352,626 L289,626 Q201,626 153,578 Q126,551 110,491 L91,491 L141,667 L681,667 L631,491 L614,491 Q622,528 622,560 Q622,626 544,626 M437,769 L593,854 L462,725 L385,725 L342,854"/> 
            <glyph glyph-name="ť" unicode="&#x165;" horiz-adv-x="407" d=" M212,405 L124,95 Q114,56 114,50 Q114,44 119,39.5 Q124,35 130,35 Q155,35 205,103 L216,90 Q146,-13 90,-13 Q68,-13 54.5,0.5 Q41,14 41,36 Q41,60 53,103 L140,405 L71,405 L79,436 Q124,445 156.5,469 Q189,493 230,546 L253,546 L221,436 L286,436 L277,405 M306,508 L290,527 Q353,556 353,587 Q353,597 337,613 Q326,622 326,636 Q326,652 338,664.5 Q350,677 366,677 Q382,677 394.5,663 Q407,649 407,630 Q407,596 380,563 Q353,530 306,508"/> 
            <glyph glyph-name="Ŧ" unicode="&#x166;" horiz-adv-x="681" d=" M389,422 L559,422 L548,385 L378,385 L297,100 Q290,80 290,59 Q290,32 315,23 Q332,18 369,18 L379,18 L373,0 L85,0 L90,18 Q146,18 167,34.5 Q188,51 203,106 L283,385 L113,385 L124,422 L294,422 L352,626 L289,626 Q201,626 153,578 Q126,549 110,491 L91,491 L141,667 L681,667 L631,491 L614,491 Q622,528 622,560 Q622,626 544,626 L447,626"/> 
            <glyph glyph-name="ŧ" unicode="&#x167;" horiz-adv-x="286" d=" M253,546 L221,436 L286,436 L277,405 L212,405 L198,354 L265,354 L256,324 L189,324 L124,95 Q114,56 114,50 Q114,44 119,39.5 Q124,35 130,35 Q155,35 205,103 L217,90 Q146,-13 90,-13 Q68,-13 54.5,0.5 Q41,14 41,36 Q41,62 53,103 L116,324 L50,324 L58,354 L125,354 L140,405 L71,405 L79,436 Q124,445 156,468.5 Q188,492 230,546"/> 
            <glyph glyph-name="ũ" unicode="&#x169;" horiz-adv-x="490" d=" M467,433 L372,105 Q369,90 366,81 Q361,59 361,58 Q359,50 359,48 Q359,44 362.5,40 Q366,36 371,36 Q392,36 435,88 L444,75 Q414,34 379.5,10.5 Q345,-13 317,-13 Q301,-13 290.5,-2.5 Q280,8 280,23 Q280,40 288,69 L326,200 Q256,93 206,44 Q145,-14 101,-14 Q77,-14 63,4.5 Q49,23 49,55 Q49,75 53,88 L130,355 Q133,367 133,375 Q133,381 128,386 Q123,391 117,391 Q106,391 96.5,383 Q87,375 63,348 L49,331 L38,342 Q86,401 113,422 Q140,443 169,443 Q186,443 197.5,432 Q209,421 209,404 Q209,388 203,366 L130,111 Q123,87 123,73 Q123,44 154,44 Q196,44 269,145 Q314,207 331,241.5 Q348,276 369,349 L393,433 M474,600 L490,600 Q468,561 457,550 Q428,521 396,521 Q372,521 303,556 Q277,569 260,569 Q234,569 215,537 L199,537 Q220,581 242,598.5 Q264,616 297,616 Q317,616 334,610 Q351,604 395,581 Q417,570 429,570 Q454,570 474,600"/> 
            <glyph glyph-name="Ū" unicode="&#x16A;" horiz-adv-x="765" d=" M139,649 L144,667 L418,667 L413,649 Q361,649 340.5,632 Q320,615 305,561 L219,262 Q200,196 200,155 Q200,105 240,71.5 Q280,38 339,38 Q404,38 455,90 Q501,138 529,234 L624,567 Q631,588 631,608 Q631,635 606,644 Q591,649 560,649 L565,667 L765,667 L760,649 Q713,648 692.5,630.5 Q672,613 657,561 L557,210 Q526,106 459.5,49 Q393,-8 301,-8 Q221,-8 165.5,43.5 Q110,95 110,168 Q110,212 124,262 L212,567 Q218,588 218,608 Q218,631 200.5,640 Q183,649 139,649 M651,806 L635,751 L340,751 L356,806"/> 
            <glyph glyph-name="ū" unicode="&#x16B;" horiz-adv-x="467" d=" M467,433 L372,105 Q369,90 366,81 Q361,59 361,58 Q359,50 359,48 Q359,44 362.5,40 Q366,36 371,36 Q392,36 435,88 L444,75 Q414,34 379.5,10.5 Q345,-13 317,-13 Q301,-13 290.5,-2.5 Q280,8 280,23 Q280,40 288,69 L326,200 Q256,93 206,44 Q145,-14 101,-14 Q77,-14 63,4.5 Q49,23 49,55 Q49,75 53,88 L130,355 Q133,367 133,375 Q133,381 128,386 Q123,391 117,391 Q106,391 96.5,383 Q87,375 63,348 L49,331 L38,342 Q86,401 113,422 Q140,443 169,443 Q186,443 197.5,432 Q209,421 209,404 Q209,388 203,366 L130,111 Q123,87 123,73 Q123,44 154,44 Q196,44 269,145 Q314,207 331,241.5 Q348,276 369,349 L393,433 M462,583 L448,534 L215,534 L229,583"/> 
            <glyph glyph-name="ŭ" unicode="&#x16D;" horiz-adv-x="467" d=" M467,433 L372,105 Q369,90 366,81 Q361,59 361,58 Q359,50 359,48 Q359,44 362.5,40 Q366,36 371,36 Q392,36 435,88 L444,75 Q414,34 379.5,10.5 Q345,-13 317,-13 Q301,-13 290.5,-2.5 Q280,8 280,23 Q280,40 288,69 L326,200 Q256,93 206,44 Q145,-14 101,-14 Q77,-14 63,4.5 Q49,23 49,55 Q49,75 53,88 L130,355 Q133,367 133,375 Q133,381 128,386 Q123,391 117,391 Q106,391 96.5,383 Q87,375 63,348 L49,331 L38,342 Q86,401 113,422 Q140,443 169,443 Q186,443 197.5,432 Q209,421 209,404 Q209,388 203,366 L130,111 Q123,87 123,73 Q123,44 154,44 Q196,44 269,145 Q314,207 331,241.5 Q348,276 369,349 L393,433 M234,655 L251,655 Q255,609 273.5,590 Q292,571 333,571 Q373,571 398,589.5 Q423,608 447,655 L464,655 Q446,581 413.5,547.5 Q381,514 327,514 Q233,514 233,624 Q233,640 234,655"/> 
            <glyph glyph-name="Ů" unicode="&#x16E;" horiz-adv-x="765" d=" M139,649 L144,667 L418,667 L413,649 Q361,649 340.5,632 Q320,615 305,561 L219,262 Q200,196 200,155 Q200,105 240,71.5 Q280,38 339,38 Q404,38 455,90 Q501,138 529,234 L624,567 Q631,588 631,608 Q631,635 606,644 Q591,649 560,649 L565,667 L765,667 L760,649 Q713,648 692.5,630.5 Q672,613 657,561 L557,210 Q526,106 459.5,49 Q393,-8 301,-8 Q221,-8 165.5,43.5 Q110,95 110,168 Q110,212 124,262 L212,567 Q218,588 218,608 Q218,631 200.5,640 Q183,649 139,649 M496,854 Q526,854 547.5,832 Q569,810 569,780 Q569,749 547.5,727.5 Q526,706 495,706 Q464,706 442.5,728 Q421,750 421,781 Q421,811 443,832.5 Q465,854 496,854 M496,820 Q479,820 467,808.5 Q455,797 455,781 Q455,764 466.5,752.5 Q478,741 495,741 Q511,741 523,752.5 Q535,764 535,780 Q535,796 523.5,808 Q512,820 496,820"/> 
            <glyph glyph-name="ů" unicode="&#x16F;" horiz-adv-x="467" d=" M467,433 L372,105 Q369,90 366,81 Q361,59 361,58 Q359,50 359,48 Q359,44 362.5,40 Q366,36 371,36 Q392,36 435,88 L444,75 Q414,34 379.5,10.5 Q345,-13 317,-13 Q301,-13 290.5,-2.5 Q280,8 280,23 Q280,40 288,69 L326,200 Q256,93 206,44 Q145,-14 101,-14 Q77,-14 63,4.5 Q49,23 49,55 Q49,75 53,88 L130,355 Q133,367 133,375 Q133,381 128,386 Q123,391 117,391 Q106,391 96.5,383 Q87,375 63,348 L49,331 L38,342 Q86,401 113,422 Q140,443 169,443 Q186,443 197.5,432 Q209,421 209,404 Q209,388 203,366 L130,111 Q123,87 123,73 Q123,44 154,44 Q196,44 269,145 Q314,207 331,241.5 Q348,276 369,349 L393,433 M324,647 Q354,647 375.5,625 Q397,603 397,573 Q397,542 375.5,520.5 Q354,499 323,499 Q292,499 270.5,521 Q249,543 249,574 Q249,604 271,625.5 Q293,647 324,647 M324,613 Q307,613 295,601.5 Q283,590 283,573 Q283,556 294.5,544.5 Q306,533 323,533 Q340,533 351.5,544.5 Q363,556 363,573 Q363,589 351.5,601 Q340,613 324,613"/> 
            <glyph glyph-name="Ű" unicode="&#x170;" horiz-adv-x="765" d=" M139,649 L144,667 L418,667 L413,649 Q361,649 340.5,632 Q320,615 305,561 L219,262 Q200,196 200,155 Q200,105 240,71.5 Q280,38 339,38 Q404,38 455,90 Q501,138 529,234 L624,567 Q631,588 631,608 Q631,635 606,644 Q591,649 560,649 L565,667 L765,667 L760,649 Q713,648 692.5,630.5 Q672,613 657,561 L557,210 Q526,106 459.5,49 Q393,-8 301,-8 Q221,-8 165.5,43.5 Q110,95 110,168 Q110,212 124,262 L212,567 Q218,588 218,608 Q218,631 200.5,640 Q183,649 139,649 M550,836 L384,713 L450,836 M683,836 L517,713 L583,836"/> 
            <glyph glyph-name="ű" unicode="&#x171;" horiz-adv-x="535" d=" M467,433 L372,105 Q369,90 366,81 Q361,59 361,58 Q359,50 359,48 Q359,44 362.5,40 Q366,36 371,36 Q392,36 435,88 L444,75 Q414,34 379.5,10.5 Q345,-13 317,-13 Q301,-13 290.5,-2.5 Q280,8 280,23 Q280,40 288,69 L326,200 Q256,93 206,44 Q145,-14 101,-14 Q77,-14 63,4.5 Q49,23 49,55 Q49,75 53,88 L130,355 Q133,367 133,375 Q133,381 128,386 Q123,391 117,391 Q106,391 96.5,383 Q87,375 63,348 L49,331 L38,342 Q86,401 113,422 Q140,443 169,443 Q186,443 197.5,432 Q209,421 209,404 Q209,388 203,366 L130,111 Q123,87 123,73 Q123,44 154,44 Q196,44 269,145 Q314,207 331,241.5 Q348,276 369,349 L393,433 M395,648 L231,497 L299,648 M535,648 L371,497 L439,648"/> 
            <glyph glyph-name="Ų" unicode="&#x172;" horiz-adv-x="765" d=" M565,667 L765,667 L760,649 Q713,648 692.5,630.5 Q672,613 657,561 L557,210 Q517,74 416,19 Q379,-2 368,-12 Q338,-39 338,-70 Q338,-84 352,-93 Q366,-102 390,-102 Q415,-102 455,-90 L450,-110 Q381,-136 341,-136 Q308,-136 287,-119.5 Q266,-103 266,-77 Q266,-30 329,-6 Q305,-8 297,-8 Q220,-8 165,44 Q110,96 110,168 Q110,212 124,262 L212,567 Q218,588 218,608 Q218,631 200.5,640 Q183,649 139,649 L144,667 L418,667 L413,649 Q361,649 340.5,632 Q320,615 305,561 L219,262 Q200,196 200,155 Q200,105 240,71.5 Q280,38 339,38 Q404,38 455,90 Q501,138 529,234 L624,567 Q631,588 631,608 Q631,635 606,644 Q591,649 560,649"/> 
            </font>
</defs>
</svg>
